# Blender 3.1.0
# www.blender.org
o new_mouth
v 1.434360 -0.296210 -0.412820
v 1.428580 -0.204710 -0.416670
v 1.337250 -0.230600 -0.313400
v 1.336020 -0.339640 -0.312430
v 1.411160 -0.128120 -0.439100
v 1.322160 -0.138520 -0.338680
v 1.221480 -0.141330 -0.216610
v 1.233680 -0.254110 -0.189970
v 1.225610 -0.385410 -0.192980
v 0.649480 0.276510 0.200770
v 0.706950 0.421590 0.340050
v 0.538970 0.432180 0.422780
v 0.481500 0.288450 0.274950
v 0.739060 0.563430 0.433530
v 0.570640 0.577180 0.522100
v 0.390970 0.568970 0.590980
v 0.362770 0.425620 0.490670
v 0.313220 0.292310 0.341150
v 1.177540 -1.030530 -0.364590
v 1.315890 -0.945090 -0.421120
v 1.313970 -0.628780 -0.402590
v 1.180000 -0.691310 -0.339510
v 1.446410 -0.844830 -0.480350
v 1.439200 -0.563300 -0.468290
v 1.434440 -0.480790 -0.438310
v 1.316070 -0.544600 -0.361570
v 1.187920 -0.607980 -0.283790
v 1.727890 -0.173900 -0.729210
v 1.705190 -0.132040 -0.736550
v 1.646860 -0.145020 -0.671290
v 1.667240 -0.196600 -0.662920
v 1.683700 -0.097980 -0.749660
v 1.625130 -0.102710 -0.687580
v 1.560160 -0.107270 -0.614130
v 1.581530 -0.159530 -0.594860
v 1.598500 -0.222790 -0.586390
v 1.756340 -0.117530 -0.788010
v 1.735020 -0.091140 -0.798860
v 1.780750 -0.150780 -0.781770
v 1.822630 -0.129130 -0.820280
v 1.796920 -0.103360 -0.825660
v 1.775510 -0.083780 -0.835170
v 1.867450 -0.096370 -0.858620
v 1.840150 -0.082920 -0.863910
v 1.823550 -0.091780 -0.849460
v 1.850350 -0.110960 -0.844420
v 1.817710 -0.073610 -0.873190
v 1.801600 -0.077890 -0.858540
v 1.882460 -0.075390 -0.869780
v 1.884340 -0.063770 -0.865040
v 1.857480 -0.063410 -0.874110
v 1.856110 -0.071110 -0.877240
v 1.879880 -0.050650 -0.849870
v 1.852220 -0.053940 -0.861020
v 1.827520 -0.055710 -0.873910
v 1.834020 -0.062680 -0.885650
v 1.833610 -0.067820 -0.887910
v 2.085030 -0.187040 -0.901770
v 2.104520 -0.123850 -0.903170
v 2.027360 -0.122880 -0.883570
v 2.013040 -0.158560 -0.881120
v 2.112120 -0.060900 -0.894440
v 2.032510 -0.087740 -0.877000
v 1.963560 -0.086920 -0.866870
v 1.959930 -0.111160 -0.869770
v 1.949370 -0.136260 -0.864690
v 1.986710 -0.196150 -0.870110
v 2.052080 -0.249860 -0.890780
v 1.928380 -0.164330 -0.852170
v 1.893810 -0.196220 -0.828480
v 1.945380 -0.238040 -0.847080
v 2.002790 -0.317660 -0.866840
v 1.779260 -0.272690 -0.737720
v 1.814310 -0.335660 -0.756400
v 1.886040 -0.285820 -0.808670
v 1.842540 -0.232820 -0.789910
v 1.853000 -0.476480 -0.771620
v 1.934240 -0.395780 -0.826550
v 1.735810 -0.385580 -0.691560
v 1.765640 -0.552050 -0.703770
v 1.708640 -0.314410 -0.673160
v 1.628870 -0.361750 -0.599320
v 1.648450 -0.439590 -0.618600
v 1.670020 -0.634750 -0.628630
v 1.434580 -0.389710 -0.419970
v 1.326190 -0.445630 -0.330140
v 1.206750 -0.503930 -0.229760
v 1.686810 -0.253440 -0.663430
v 1.751510 -0.220670 -0.729020
v 1.613250 -0.291120 -0.588080
v 1.808460 -0.189190 -0.781600
v 1.853910 -0.160380 -0.820340
v 1.902350 -0.114740 -0.858040
v 1.884110 -0.135620 -0.844450
v 0.898230 0.523760 0.335130
v 0.913270 0.621740 0.377000
v 0.754640 0.665120 0.482240
v 1.041080 0.471720 0.237670
v 1.055610 0.565010 0.272160
v 1.056320 0.636100 0.281090
v 0.914690 0.693980 0.388370
v 0.757600 0.737820 0.495120
v 0.586470 0.681660 0.575050
v 0.404880 0.674160 0.644910
v 0.589750 0.755690 0.589740
v 0.407570 0.749400 0.658090
v 0.627190 -0.806470 -0.035200
v 0.616360 -0.898340 -0.094480
v 0.760290 -0.854150 -0.146710
v 0.773310 -0.772900 -0.083380
v 0.609970 -1.221230 -0.122440
v 0.752570 -1.187660 -0.173490
v 0.894200 -1.143660 -0.235880
v 0.902840 -0.799990 -0.207770
v 0.916880 -0.726540 -0.141590
v 0.966230 -0.486060 0.013540
v 0.824420 -0.530900 0.093140
v 0.797010 -0.675420 0.000790
v 0.941100 -0.625810 -0.062560
v 0.674850 -0.571780 0.162000
v 0.649170 -0.715180 0.052490
v 0.836590 -0.326780 0.135440
v 0.682890 -0.348870 0.209950
v 0.981930 -0.301480 0.050340
v 0.974520 -0.133260 0.019700
v 0.820280 -0.139960 0.087870
v 0.661210 -0.144130 0.137380
v 0.583760 0.838800 0.570840
v 0.402130 0.835540 0.632340
v 0.751810 0.839920 0.475660
v 0.741640 1.152610 0.417150
v 0.573160 1.174410 0.506210
v 0.392630 1.163290 0.559570
v -0.005580 -0.143650 0.228110
v -0.016810 -0.389490 0.343690
v 0.153610 -0.387640 0.334840
v 0.171040 -0.143440 0.225360
v 0.000680 -0.616050 0.292520
v 0.172770 -0.612780 0.272650
v 0.342340 -0.610550 0.231370
v 0.340560 -0.379570 0.309130
v 0.335670 -0.142050 0.211960
v -0.000540 -0.839660 0.046460
v 0.167080 -0.835330 0.041910
v 0.172850 -0.745440 0.139780
v 0.002800 -0.749550 0.145850
v 0.329460 -0.830580 0.027540
v 0.339050 -0.742580 0.120850
v -0.001230 -0.922420 -0.022510
v 0.162970 -0.922310 -0.024080
v -0.001630 -1.253600 -0.058360
v 0.158260 -1.251240 -0.065410
v 0.314730 -1.246660 -0.077060
v 0.322240 -0.920000 -0.035950
v -0.001510 1.083280 0.526050
v -0.001510 0.752170 0.637740
v 0.204350 0.799320 0.642830
v 0.198870 1.115990 0.548040
v -0.001510 0.701000 0.689890
v 0.207510 0.720770 0.686030
v -0.001510 0.523520 0.642840
v 0.198040 0.541880 0.630450
v 0.206000 0.645900 0.681230
v -0.001510 0.626720 0.690990
v 0.181810 0.405600 0.532260
v 0.153670 0.282250 0.382900
v -0.001510 0.391600 0.546540
v -0.001510 0.271880 0.397800
v 0.513500 -0.599360 0.208500
v 0.517510 -0.367480 0.262350
v 0.504640 -0.140070 0.183060
v 0.497190 -0.736300 0.091940
v 0.481050 -0.823910 0.002850
v 0.471860 -0.916550 -0.058270
v 0.464660 -1.238820 -0.093050
v 1.550140 -0.499620 -0.542230
v 1.538090 -0.418530 -0.519300
v 1.564030 -0.736860 -0.551840
v 1.509390 -0.180000 -0.509730
v 1.489670 -0.116630 -0.530510
v 1.521370 -0.256530 -0.503110
v 1.115720 -0.276530 -0.056870
v 1.107620 -0.135020 -0.084920
v 1.102120 -0.435920 -0.075180
v 1.078280 -0.566040 -0.135060
v 1.054960 -0.669830 -0.207180
v 1.042850 -0.745960 -0.273170
v 1.036420 -1.094000 -0.301210
v 1.702080 0.006170 -0.696590
v 1.748570 -0.016770 -0.760840
v 1.777600 -0.005140 -0.737030
v 1.734280 0.021690 -0.666480
v 1.786270 -0.034640 -0.812730
v 1.813160 -0.026820 -0.794180
v 1.841670 -0.015530 -0.776830
v 1.807110 0.011340 -0.715510
v 1.765270 0.043030 -0.640620
v 1.836760 0.032850 -0.696260
v 1.793720 0.069920 -0.619820
v 1.872350 0.000600 -0.760060
v 1.910730 0.025920 -0.745690
v 1.871990 0.063260 -0.680890
v 1.825340 0.104950 -0.605170
v 1.962360 0.073530 -0.736520
v 1.918220 0.119130 -0.672500
v 2.020630 0.205690 -0.738510
v 1.969950 0.270420 -0.677240
v 1.910790 0.334280 -0.609460
v 1.865850 0.168970 -0.599900
v 1.588600 0.042320 -0.534630
v 1.649900 0.024930 -0.621190
v 1.686400 0.046440 -0.584790
v 1.629850 0.069680 -0.490320
v 1.719320 0.075710 -0.555530
v 1.664790 0.111830 -0.457610
v 1.746210 0.108950 -0.534550
v 1.690100 0.153870 -0.436900
v 1.773220 0.149250 -0.521680
v 1.712330 0.200580 -0.426450
v 1.044250 1.032910 0.224700
v 1.051630 0.766660 0.265270
v 1.177140 0.711980 0.168090
v 1.174710 0.960670 0.131470
v 1.177800 0.576100 0.184920
v 1.295240 0.506410 0.080700
v 1.299600 0.635990 0.063530
v 1.302860 0.874350 0.028430
v 1.174940 0.508410 0.180560
v 1.160530 0.420920 0.151930
v 1.273200 0.363220 0.054960
v 1.288710 0.443190 0.079650
v 1.004300 0.347190 0.168470
v 1.126590 0.303110 0.088150
v 0.953310 0.222400 0.075830
v 1.080720 0.187830 0.008320
v 1.199050 0.150400 -0.084090
v 1.241920 0.254410 -0.005290
v 1.571550 0.650360 -0.228490
v 1.440930 0.763830 -0.097960
v 1.433290 0.534200 -0.065070
v 1.559160 0.435380 -0.199790
v 1.424750 0.419500 -0.050730
v 1.546170 0.332440 -0.189410
v 1.414410 0.361010 -0.053190
v 1.531960 0.278710 -0.195250
v 1.395720 0.291150 -0.076280
v 1.509820 0.218930 -0.217660
v 1.362130 0.198150 -0.130260
v 1.473050 0.143960 -0.262330
v 1.316940 0.115900 -0.207370
v 1.425230 0.089280 -0.329260
v 1.529710 -0.337350 -0.506220
v 1.597240 0.158640 -0.344790
v 1.621270 0.210540 -0.323530
v 1.639340 0.260620 -0.315180
v 1.514750 0.064470 -0.437270
v 1.560510 0.101110 -0.382520
v 1.658160 0.354320 -0.321040
v 1.677370 0.555660 -0.344020
v 1.738030 0.284660 -0.427830
v 1.765470 0.474450 -0.445270
v 1.842960 0.401500 -0.532950
v 1.806520 0.223510 -0.519570
v 1.865790 -0.035480 -0.821020
v 1.837740 -0.042520 -0.834930
v 1.812090 -0.046950 -0.850020
v 1.956860 -0.034560 -0.832850
v 1.939090 -0.005970 -0.796310
v 1.897460 -0.024470 -0.807370
v 1.912370 -0.044860 -0.839550
v 2.093770 0.065660 -0.842740
v 2.063050 0.135650 -0.795460
v 1.997000 0.030020 -0.790910
v 2.020520 -0.012230 -0.833150
v 1.963770 -0.061460 -0.855470
v 1.917280 -0.063860 -0.857880
v 1.915910 -0.081440 -0.865420
v 2.109330 0.001210 -0.875010
v 2.031290 -0.051360 -0.861000
v 0.863240 0.390310 0.253980
v 0.808160 0.253730 0.139720
v 0.908810 0.814060 0.370620
v 0.899290 1.101160 0.321620
v -1.437380 -0.296590 -0.412810
v -1.338960 -0.339830 -0.312420
v -1.340130 -0.231410 -0.313320
v -1.431580 -0.205950 -0.416550
v -1.228510 -0.385060 -0.193000
v -1.236590 -0.253500 -0.190030
v -1.224420 -0.140620 -0.216650
v -1.325010 -0.140000 -0.338480
v -1.414160 -0.129380 -0.438980
v -0.652500 0.276520 0.200800
v -0.484520 0.288500 0.274940
v -0.541980 0.432180 0.422780
v -0.709970 0.421550 0.340050
v -0.316240 0.292330 0.341140
v -0.365780 0.425330 0.490710
v -0.393980 0.568830 0.591000
v -0.573650 0.577160 0.522100
v -0.742070 0.563400 0.433540
v -1.180600 -1.030610 -0.364570
v -1.183050 -0.691380 -0.339500
v -1.317020 -0.628860 -0.402600
v -1.318950 -0.945190 -0.421120
v -1.190940 -0.608010 -0.283830
v -1.319100 -0.544660 -0.361600
v -1.437490 -0.480880 -0.438350
v -1.442260 -0.563390 -0.468330
v -1.449470 -0.844940 -0.480390
v -1.730950 -0.174000 -0.729230
v -1.670300 -0.196710 -0.662930
v -1.649910 -0.145120 -0.671310
v -1.708250 -0.132150 -0.736560
v -1.601560 -0.222890 -0.586410
v -1.584580 -0.159640 -0.594870
v -1.563210 -0.107380 -0.614160
v -1.628180 -0.102820 -0.687600
v -1.686760 -0.098090 -0.749680
v -1.738080 -0.091250 -0.798880
v -1.759400 -0.117620 -0.788030
v -1.778570 -0.083890 -0.835220
v -1.799980 -0.103450 -0.825700
v -1.825690 -0.129200 -0.820320
v -1.783810 -0.150860 -0.781800
v -1.885520 -0.075510 -0.869800
v -1.880550 -0.085510 -0.867390
v -1.853730 -0.076950 -0.873580
v -1.859160 -0.071250 -0.877290
v -1.870510 -0.096480 -0.858660
v -1.843210 -0.083030 -0.864020
v -1.820760 -0.073720 -0.873370
v -1.831330 -0.070930 -0.883500
v -1.836660 -0.067960 -0.887980
v -1.860540 -0.063540 -0.874190
v -1.887400 -0.063890 -0.865080
v -1.837080 -0.062830 -0.885780
v -1.830570 -0.055870 -0.874090
v -1.855280 -0.054080 -0.861130
v -1.882940 -0.050770 -0.849910
v -2.088090 -0.187200 -0.901790
v -2.016110 -0.158680 -0.881150
v -2.030430 -0.123000 -0.883600
v -2.107580 -0.124010 -0.903190
v -1.952440 -0.136370 -0.864720
v -1.962990 -0.111270 -0.869790
v -1.966620 -0.087040 -0.866900
v -2.035570 -0.087870 -0.877030
v -2.115180 -0.061080 -0.894460
v -1.782330 -0.272810 -0.737750
v -1.845620 -0.232940 -0.789950
v -1.889120 -0.285940 -0.808710
v -1.817380 -0.335770 -0.756450
v -1.896890 -0.196340 -0.828520
v -1.948480 -0.238170 -0.847120
v -2.005910 -0.317830 -0.866880
v -1.937350 -0.395930 -0.826590
v -1.856080 -0.476610 -0.771690
v -1.768710 -0.552180 -0.703920
v -1.738880 -0.385690 -0.691650
v -1.673090 -0.634890 -0.628830
v -1.651520 -0.439710 -0.618720
v -1.631930 -0.361870 -0.599380
v -1.711710 -0.314520 -0.673200
v -1.329180 -0.445600 -0.330140
v -1.437610 -0.389780 -0.420000
v -1.209700 -0.503810 -0.229800
v -1.754590 -0.220780 -0.729050
v -1.689880 -0.253550 -0.663460
v -1.616310 -0.291230 -0.588110
v -1.856980 -0.160470 -0.820380
v -1.811530 -0.189290 -0.781620
v -1.918970 -0.081560 -0.865440
v -1.915000 -0.097660 -0.865280
v -1.905420 -0.114850 -0.858070
v -0.757660 0.665090 0.482240
v -0.916280 0.621650 0.377000
v -0.901250 0.523680 0.335140
v -0.760610 0.737800 0.495120
v -0.917700 0.693880 0.388360
v -1.059320 0.635900 0.281080
v -1.058610 0.564840 0.272160
v -1.044090 0.471580 0.237680
v -0.407890 0.674160 0.644900
v -0.589480 0.681650 0.575040
v -0.410590 0.749390 0.658070
v -0.592760 0.755680 0.589730
v -0.630220 -0.806370 -0.035540
v -0.776330 -0.772920 -0.083410
v -0.763320 -0.854240 -0.146680
v -0.619230 -0.897890 -0.095750
v -0.919890 -0.726580 -0.141690
v -0.905870 -0.800030 -0.207750
v -0.897240 -1.143690 -0.235860
v -0.755600 -1.187580 -0.173460
v -0.613120 -1.221390 -0.121480
v -0.969360 -0.485750 0.013330
v -0.944070 -0.625770 -0.062760
v -0.800000 -0.675440 0.000680
v -0.827860 -0.531100 0.094430
v -0.652330 -0.714080 0.050300
v -0.681220 -0.570970 0.173680
v -0.690960 -0.348970 0.228420
v -0.840180 -0.326250 0.136130
v -0.664820 -0.143580 0.139520
v -0.823890 -0.139100 0.087820
v -0.978590 -0.132060 0.019500
v -0.985610 -0.300640 0.050140
v -0.405160 0.835500 0.632350
v -0.586790 0.838920 0.570830
v -0.395650 1.163190 0.559600
v -0.576180 1.174340 0.506230
v -0.744660 1.152550 0.417160
v -0.754820 0.839930 0.475660
v -0.192290 -0.138760 0.233880
v -0.191000 -0.382400 0.351400
v -0.348620 -0.139860 0.226860
v -0.359770 -0.372090 0.335360
v -0.358880 -0.602250 0.260710
v -0.192610 -0.607100 0.284520
v -0.173190 -0.749970 0.131250
v -0.169570 -0.839060 0.039600
v -0.344540 -0.743100 0.109860
v -0.332790 -0.832480 0.024500
v -0.165580 -0.921020 -0.028120
v -0.324880 -0.918930 -0.039660
v -0.318800 -1.250060 -0.067680
v -0.161970 -1.253690 -0.058770
v -0.201890 1.115920 0.548060
v -0.207370 0.799530 0.642800
v -0.210530 0.720770 0.686020
v -0.209020 0.645700 0.681250
v -0.201060 0.541440 0.630500
v -0.156690 0.282240 0.382900
v -0.184830 0.404610 0.532370
v -0.530780 -0.363580 0.295620
v -0.525260 -0.594550 0.230670
v -0.510830 -0.138790 0.199030
v -0.484300 -0.823790 0.000510
v -0.502010 -0.734170 0.085370
v -0.468350 -1.240750 -0.087400
v -0.474590 -0.915760 -0.061080
v -1.541150 -0.418630 -0.519350
v -1.553200 -0.499720 -0.542320
v -1.567100 -0.736990 -0.551980
v -1.492710 -0.116720 -0.530520
v -1.512440 -0.180410 -0.509700
v -1.524420 -0.256690 -0.503120
v -1.111210 -0.133950 -0.085160
v -1.119080 -0.275670 -0.057060
v -1.105130 -0.435530 -0.075290
v -1.057970 -0.669860 -0.207260
v -1.081230 -0.565940 -0.135140
v -1.045890 -0.746020 -0.273170
v -1.039460 -1.094070 -0.301190
v -1.705130 0.006070 -0.696630
v -1.737330 0.021510 -0.666580
v -1.780660 -0.005270 -0.737110
v -1.751620 -0.016870 -0.760870
v -1.768320 0.042790 -0.640780
v -1.810160 0.011050 -0.715610
v -1.844730 -0.015710 -0.776870
v -1.816220 -0.026970 -0.794230
v -1.789330 -0.034770 -0.812780
v -1.796760 0.069580 -0.619990
v -1.839810 0.032590 -0.696380
v -1.828380 0.104530 -0.605330
v -1.875040 0.063000 -0.681020
v -1.913790 0.025700 -0.745730
v -1.875400 0.000300 -0.760090
v -1.921270 0.118860 -0.672630
v -1.965430 0.073340 -0.736570
v -1.868890 0.168480 -0.600070
v -1.913840 0.333730 -0.609630
v -1.973010 0.270140 -0.677380
v -2.023700 0.205500 -0.738580
v -1.591640 0.041520 -0.534580
v -1.632880 0.068980 -0.490280
v -1.689440 0.046170 -0.584840
v -1.652950 0.024820 -0.621240
v -1.667820 0.111250 -0.457610
v -1.722360 0.075140 -0.555600
v -1.693120 0.153360 -0.436920
v -1.749240 0.108210 -0.534620
v -1.715340 0.200090 -0.426500
v -1.776250 0.148490 -0.521760
v -1.047240 1.032570 0.224690
v -1.177670 0.960120 0.131450
v -1.180110 0.711570 0.168060
v -1.054630 0.766480 0.265250
v -1.305810 0.873610 0.028380
v -1.302560 0.635700 0.063450
v -1.298210 0.506010 0.080650
v -1.180790 0.575790 0.184890
v -1.177930 0.508140 0.180550
v -1.291690 0.442850 0.079620
v -1.276200 0.362940 0.054950
v -1.163530 0.420700 0.151930
v -1.129590 0.302960 0.088230
v -1.007310 0.347090 0.168480
v -1.244920 0.254230 -0.005170
v -1.202050 0.149070 -0.083440
v -1.083730 0.187760 0.008620
v -0.956320 0.222340 0.076020
v -1.574490 0.649550 -0.228570
v -1.562120 0.435090 -0.199900
v -1.436240 0.533870 -0.065180
v -1.443870 0.763000 -0.098030
v -1.549140 0.332030 -0.189470
v -1.427720 0.419060 -0.050790
v -1.534950 0.278370 -0.195290
v -1.417390 0.360640 -0.053230
v -1.512820 0.218660 -0.217670
v -1.398710 0.290850 -0.076290
v -1.476050 0.143780 -0.262310
v -1.365130 0.197950 -0.130210
v -1.428250 0.089160 -0.329210
v -1.319950 0.115800 -0.207180
v -1.532770 -0.337450 -0.506240
v -1.624270 0.210290 -0.323570
v -1.600250 0.158420 -0.344810
v -1.642330 0.260320 -0.315240
v -1.563530 0.100940 -0.382500
v -1.517770 0.064320 -0.437250
v -1.680330 0.554950 -0.344090
v -1.661140 0.354130 -0.321140
v -1.768480 0.473720 -0.445320
v -1.741030 0.284170 -0.427890
v -1.809550 0.222630 -0.519640
v -1.845990 0.400720 -0.533050
v -1.840790 -0.042660 -0.835010
v -1.868850 -0.035620 -0.821060
v -1.815150 -0.047100 -0.850140
v -1.959920 -0.034700 -0.832870
v -1.915430 -0.044980 -0.839570
v -1.900520 -0.024610 -0.807390
v -1.942160 -0.006200 -0.796320
v -2.096850 0.065410 -0.842790
v -2.023590 -0.012390 -0.833190
v -2.000070 0.029830 -0.790950
v -2.066130 0.135450 -0.795510
v -1.920340 -0.063980 -0.857900
v -1.966830 -0.061590 -0.855490
v -2.034360 -0.051510 -0.861040
v -2.112400 0.000980 -0.875050
v -0.866260 0.390240 0.253990
v -0.811170 0.253700 0.139840
v -0.902290 1.101010 0.321620
v -0.911820 0.813940 0.370620
v -1.989800 -0.196280 -0.870140
v -1.931450 -0.164440 -0.852200
v -2.055180 -0.250030 -0.890820
v -1.887170 -0.135720 -0.844480
v -1.853410 -0.111040 -0.844460
v -1.826610 -0.091860 -0.849550
v -1.804660 -0.078000 -0.858670
v 1.877490 -0.085380 -0.867350
v 1.911940 -0.097540 -0.865260
v 1.850670 -0.076830 -0.873500
v 1.828280 -0.070800 -0.883380
v 1.122820 0.001410 -0.392590
v 1.179570 -0.065210 -0.291050
v 1.283050 -0.076090 -0.398270
v 1.231940 -0.018680 -0.475740
v 1.376040 -0.075760 -0.488140
v 1.332070 -0.029900 -0.551140
v 1.501010 -0.043780 -0.681430
v 1.420570 -0.036060 -0.619640
v 1.458080 -0.072050 -0.570280
v 1.532230 -0.071520 -0.644890
v 1.644510 -0.056550 -0.786900
v 1.576980 -0.051360 -0.737480
v 1.601520 -0.073710 -0.710790
v 1.663730 -0.074600 -0.767180
v 1.740320 -0.061780 -0.861230
v 1.699630 -0.059940 -0.828480
v 1.716600 -0.073380 -0.812880
v 1.757160 -0.071060 -0.847490
v 1.797370 -0.067520 -0.885750
v 1.782400 -0.069050 -0.870590
v 1.778080 -0.063100 -0.899950
v 1.764570 -0.062760 -0.884120
v 1.790160 -0.062710 -0.917380
v 1.786570 -0.063160 -0.911500
v 1.807110 -0.066500 -0.896600
v 1.811730 -0.065060 -0.901840
v 1.811300 -0.061850 -0.900210
v 1.803910 -0.056840 -0.889430
v 1.780840 -0.057840 -0.906240
v 1.788940 -0.061090 -0.916260
v 1.787630 -0.050060 -0.867200
v 1.760440 -0.040210 -0.833090
v 1.735160 -0.045060 -0.854310
v 1.763770 -0.052760 -0.885400
v 1.637970 -0.013920 -0.764880
v 1.692440 -0.032400 -0.813700
v 1.720310 -0.024830 -0.786810
v 1.670000 -0.003540 -0.730090
v 1.498710 0.018470 -0.646280
v 1.574080 -0.001030 -0.707720
v 1.612270 0.011160 -0.663190
v 1.544400 0.031160 -0.588600
v 1.463630 0.056840 -0.507470
v 1.369990 0.074160 -0.416520
v 1.311020 0.060540 -0.511820
v 1.409840 0.039190 -0.582540
v 1.263460 0.090610 -0.311310
v 1.148750 0.111810 -0.200490
v 1.094750 0.093710 -0.341870
v 1.205840 0.074090 -0.427630
v 1.030540 0.134010 -0.115780
v 0.896120 0.150460 -0.060380
v 0.835850 0.124030 -0.250530
v 0.978190 0.105880 -0.279680
v 0.732820 0.170220 -0.021740
v 0.557810 0.177700 0.013930
v 0.449030 0.155920 -0.221820
v 0.647360 0.136020 -0.242650
v 0.388260 0.198050 0.074680
v 0.235290 0.212870 0.140080
v 0.143160 0.177600 -0.088790
v 0.277150 0.169020 -0.156710
v -0.001510 0.204910 0.192090
v 0.109970 0.212110 0.179190
v -0.001510 0.181910 -0.043460
v 0.058490 0.180390 -0.053080
v -0.113000 0.212100 0.179190
v -0.238310 0.212840 0.140090
v -0.146190 0.178530 -0.088890
v -0.061520 0.180550 -0.053090
v -0.560840 0.177830 0.013950
v -0.391300 0.197970 0.074700
v -0.452090 0.150790 -0.221170
v -0.280200 0.171230 -0.156950
v -0.899140 0.150410 -0.060170
v -0.735850 0.170220 -0.021590
v -0.838870 0.123960 -0.250390
v -0.650410 0.136090 -0.242600
v -1.151760 0.111760 -0.200180
v -1.033540 0.133980 -0.115470
v -1.097760 0.093650 -0.341670
v -0.981210 0.105840 -0.279480
v -1.373010 0.074050 -0.416490
v -1.266480 0.090540 -0.311160
v -1.314050 0.060450 -0.511840
v -1.208850 0.074010 -0.427570
v -1.547430 0.031010 -0.588680
v -1.466660 0.056720 -0.507500
v -1.501750 0.018320 -0.646430
v -1.412870 0.039080 -0.582630
v -1.641010 -0.014050 -0.764920
v -1.577120 -0.001160 -0.707830
v -1.615310 0.011030 -0.663260
v -1.673050 -0.003640 -0.730120
v -1.738210 -0.045200 -0.854360
v -1.695490 -0.032530 -0.813720
v -1.723360 -0.024940 -0.786820
v -1.763500 -0.040340 -0.833140
v -1.806960 -0.057010 -0.889630
v -1.790690 -0.050220 -0.867340
v -1.783890 -0.058010 -0.906440
v -1.766820 -0.052920 -0.885540
v -1.814780 -0.065210 -0.901910
v -1.814350 -0.062000 -0.900350
v -1.793200 -0.062870 -0.917450
v -1.791990 -0.061260 -0.916390
v -1.781130 -0.063250 -0.900150
v -1.789620 -0.063320 -0.911630
v -1.810170 -0.066640 -0.896740
v -1.800420 -0.067650 -0.885960
v -1.743380 -0.061900 -0.861280
v -1.767620 -0.062900 -0.884260
v -1.785450 -0.069180 -0.870730
v -1.760210 -0.071180 -0.847540
v -1.647560 -0.056660 -0.786930
v -1.702690 -0.060050 -0.828490
v -1.719660 -0.073490 -0.812900
v -1.666780 -0.074710 -0.767210
v -1.504050 -0.043900 -0.681570
v -1.580030 -0.051470 -0.737580
v -1.604570 -0.073820 -0.710850
v -1.535270 -0.071630 -0.644970
v -1.335100 -0.029980 -0.551160
v -1.423610 -0.036170 -0.619720
v -1.461130 -0.072150 -0.570320
v -1.379040 -0.075780 -0.488160
v -1.125680 0.001690 -0.392570
v -1.234900 -0.018620 -0.475730
v -1.285940 -0.075860 -0.398280
v -1.182480 -0.064650 -0.291070
v -1.069320 -0.048440 -0.177330
v -0.937690 -0.035820 -0.087870
v -0.876890 0.030640 -0.253740
v -1.010110 0.018990 -0.311320
v -0.557050 0.047130 -0.220090
v -0.714760 0.041240 -0.233510
v -0.780540 -0.028160 -0.037520
v -0.621910 -0.026020 -0.008570
v -0.479040 -0.026410 0.012560
v -0.335930 -0.030280 0.028670
v -0.319710 0.038480 -0.161170
v -0.437240 0.043760 -0.190240
v -0.001530 -0.040320 -0.008410
v -0.174610 -0.038120 0.017590
v -0.001510 0.039480 -0.156000
v -0.168930 0.038270 -0.154020
v 0.171250 -0.038250 0.017720
v 0.332740 -0.030280 0.028700
v 0.316860 0.038410 -0.161200
v 0.165910 0.038310 -0.153990
v 0.619240 -0.026550 -0.008590
v 0.476290 -0.026590 0.012620
v 0.555110 0.046420 -0.220170
v 0.434900 0.043340 -0.190390
v 0.874380 0.030050 -0.253480
v 0.712630 0.040500 -0.233450
v 0.777430 -0.028990 -0.037460
v 0.934160 -0.036820 -0.087600
v 1.066020 -0.049310 -0.177130
v 1.007360 0.018540 -0.311200
vn 7.1293 -0.0020 7.0123
vn 7.0509 2.0049 6.8019
vn 7.3572 1.3040 6.6461
vn 7.3409 -0.9758 6.7201
vn 5.8381 5.6110 5.8681
vn 6.2868 5.2610 5.7269
vn 6.6568 4.8437 5.6768
vn 7.4694 0.6771 6.6143
vn 7.3178 -1.8800 6.5510
vn 1.4280 -8.2506 5.4671
vn 2.7731 -6.4991 7.0761
vn 2.8599 -6.6762 6.8739
vn 1.6602 -8.4440 5.0933
vn 3.6041 -5.1670 7.7661
vn 3.4172 -5.3010 7.7603
vn 2.8049 -5.3269 7.9848
vn 2.5560 -6.7748 6.8971
vn 1.7338 -8.5686 4.8551
vn 4.4063 -0.6956 8.9499
vn 4.3788 -0.5372 8.9743
vn 4.8781 -1.2991 8.6323
vn 4.7910 -1.7020 8.6110
vn 4.8212 -0.3160 8.7554
vn 5.4009 -0.8218 8.3759
vn 6.4200 -2.0891 7.3770
vn 6.2529 -3.4301 7.0097
vn 6.1060 -4.6571 6.4053
vn 6.0022 3.5702 7.1573
vn 5.6940 4.9541 6.5601
vn 6.2978 4.3607 6.4283
vn 6.6016 2.7930 6.9726
vn 4.9601 6.6053 5.6362
vn 5.3989 6.4003 5.4670
vn 5.5928 6.1960 5.5073
vn 6.6430 3.6372 6.5300
vn 6.8873 1.8980 6.9973
vn 4.8571 5.4851 6.8061
vn 4.2579 6.9673 5.7730
vn 5.1471 4.1881 7.4811
vn 4.2432 4.6561 7.7663
vn 3.9542 6.0429 6.9172
vn 3.4152 7.5570 5.5882
vn 2.0700 5.0252 8.3942
vn 1.7300 7.1951 6.7259
vn 2.8820 6.6219 6.9170
vn 3.2001 4.9252 8.0933
vn 1.3890 8.8941 4.3550
vn 2.4052 8.2720 5.0783
vn -1.6730 -0.7691 9.8290
vn -1.7649 -6.2172 7.6310
vn -2.5379 -6.9113 6.7670
vn -2.7109 1.4560 9.5148
vn -0.4372 -8.4122 5.3893
vn -0.9341 -8.9483 4.3652
vn -1.2491 -9.3343 3.3631
vn -2.9991 -7.8079 5.4811
vn -3.4231 4.3079 8.3501
vn 2.7969 -0.0701 9.6007
vn 2.5350 -1.2245 9.5955
vn 2.3458 -0.9700 9.6724
vn 2.7950 0.1982 9.5994
vn 3.0450 -2.6130 9.1597
vn 2.4400 -2.5691 9.3513
vn 1.0420 -2.8070 9.5412
vn 1.7610 -0.2550 9.8404
vn 2.7059 1.2851 9.5408
vn 3.5562 0.8199 9.3103
vn 3.5390 0.5770 9.3350
vn 3.6370 1.8978 9.1198
vn 4.5251 2.0108 8.6879
vn 4.3649 1.0292 8.9380
vn 4.3661 0.8010 8.9608
vn 6.0207 1.3192 7.8747
vn 5.7281 0.7529 8.1623
vn 5.0750 0.9399 8.5651
vn 5.3041 1.7531 8.2942
vn 5.7411 0.6480 8.1621
vn 5.0848 0.7561 8.5775
vn 6.1500 0.4790 7.8707
vn 6.0606 0.4564 7.9411
vn 6.5032 0.7221 7.5622
vn 6.6872 -0.0308 7.4351
vn 6.2008 0.0931 7.8449
vn 5.9889 0.1969 8.0059
vn 6.8430 -1.2097 7.1910
vn 6.8981 -2.5008 6.7943
vn 6.7853 -3.7303 6.3281
vn 6.6289 1.5789 7.3188
vn 6.0829 2.3480 7.5819
vn 6.8491 0.7340 7.2492
vn 5.2782 2.9512 7.9644
vn 4.4188 3.3379 8.3266
vn 2.3912 3.0080 9.2322
vn 3.4442 3.3730 8.7613
vn 3.6200 -4.9580 7.8940
vn 4.7348 -3.0342 8.2689
vn 4.4301 -3.3168 8.3291
vn 3.7188 -4.7310 7.9867
vn 4.9853 -2.6972 8.2385
vn 6.1659 0.3792 7.8637
vn 5.8571 0.4040 8.0951
vn 5.2781 0.4431 8.4821
vn 3.8599 -3.4891 8.5397
vn 2.7870 -3.3703 8.9930
vn 4.1721 0.5362 9.0723
vn 2.1678 1.1782 9.6908
vn 3.2969 -6.2399 7.0848
vn 3.2059 -2.0330 9.2515
vn 4.1861 -2.1013 8.8352
vn 4.2951 -6.2400 6.5280
vn 2.8948 -0.9301 9.5266
vn 3.8551 -0.8450 9.1883
vn 4.3036 -0.8287 8.9884
vn 4.6562 -2.1482 8.5852
vn 5.0430 -6.1081 6.1040
vn 5.5471 -3.3361 7.6223
vn 4.3220 -3.5970 8.2693
vn 4.3069 -5.7588 6.9489
vn 5.2701 -5.3851 6.5748
vn 2.9518 -3.5796 8.8585
vn 3.2391 -5.9522 7.3539
vn 4.0208 -0.2762 9.1519
vn 2.3200 -0.0989 9.7267
vn 5.5858 -0.2191 8.2916
vn 4.7786 4.8417 7.3296
vn 3.0851 5.0654 8.0513
vn 1.4530 5.0711 8.4955
vn 3.8893 2.0123 8.9902
vn 1.1982 2.5131 9.6046
vn 5.2259 1.7469 8.3450
vn 5.1515 1.7240 8.3958
vn 3.8792 1.9143 9.0159
vn 1.3283 2.2780 9.6461
vn 0.0132 4.9130 8.7099
vn 0.3340 1.7371 9.8423
vn 0.2058 1.4990 9.8849
vn -0.5731 4.9912 8.6463
vn 0.4081 -2.9280 9.5530
vn 0.6260 -3.1739 9.4623
vn 1.8379 -3.4758 9.1946
vn 1.4052 0.6619 9.8786
vn 0.5071 5.1459 8.5594
vn -0.0802 -6.8069 7.3253
vn 0.5208 -6.7729 7.3387
vn 0.7720 -6.7521 7.3358
vn -0.0270 -6.9439 7.1959
vn 1.1818 -6.6136 7.4070
vn 1.5470 -6.3471 7.5711
vn -0.0120 -2.3231 9.7264
vn 0.4781 -2.3033 9.7194
vn 0.0413 -1.0802 9.9414
vn 0.5143 -1.2100 9.9132
vn 1.0137 -1.2182 9.8736
vn 1.0690 -2.2678 9.6806
vn 0.0003 3.0278 9.5306
vn -0.0000 3.7329 9.2771
vn -0.8090 3.2079 9.4369
vn -0.8689 2.7390 9.5782
vn 0.0010 2.9302 9.5611
vn 0.3510 2.2990 9.7258
vn 0.0090 -5.2840 8.4900
vn 1.7020 -5.2932 8.3118
vn 1.4210 -3.0269 9.4244
vn 0.0025 -2.8578 9.5830
vn 1.7108 -6.8617 7.0704
vn 1.4140 -8.6469 4.8199
vn 0.0130 -6.9300 7.2094
vn 0.0080 -8.7229 4.8899
vn 2.3030 -3.4258 9.1082
vn 1.8342 0.1541 9.8291
vn 0.8940 5.1059 8.5516
vn 2.2561 -6.0633 7.6253
vn 2.1252 -6.3801 7.4012
vn 1.9601 -2.1421 9.5692
vn 1.7746 -1.0911 9.7806
vn 5.9529 -0.3451 8.0277
vn 6.6529 -0.9369 7.4068
vn 5.5718 -0.0630 8.3037
vn 6.8688 2.7997 6.7068
vn 5.6981 5.9051 5.7151
vn 7.0246 0.9568 7.0526
vn 6.8640 0.1351 7.2710
vn 6.1794 4.6803 6.3174
vn 6.6431 -2.6999 6.9699
vn 6.1679 -4.7091 6.3073
vn 5.6770 -5.5871 6.0462
vn 4.8351 -2.0158 8.5181
vn 4.4499 -0.7920 8.9203
vn 0.6350 -9.4338 3.2559
vn 0.1400 -9.3817 3.4589
vn 1.0981 -9.0289 4.1560
vn 1.7789 -8.9439 4.1040
vn 0.0122 -9.4543 3.2583
vn 0.6739 -9.1564 3.9631
vn 1.4399 -8.7003 4.7151
vn 2.1111 -8.4692 4.8801
vn 2.9703 -8.1763 4.9321
vn 3.2213 -7.6070 5.6352
vn 4.1439 -7.0847 5.7128
vn 2.4272 -7.9669 5.5351
vn 3.8311 -6.5963 6.4662
vn 4.6730 -6.0187 6.4759
vn 5.5547 -5.1890 6.4977
vn 5.8463 -3.7599 7.1892
vn 6.3808 -3.1142 7.0419
vn 6.4639 -2.5871 7.1781
vn 6.8334 -1.9987 7.0221
vn 7.1191 -1.4411 6.8732
vn 6.8277 -2.3977 6.9017
vn 0.8480 -9.5293 2.9111
vn 1.0400 -9.4889 2.9799
vn 2.6658 -8.7427 4.0569
vn 3.2301 -8.3711 4.4148
vn 4.0396 -7.6269 5.0510
vn 4.8345 -6.8407 5.4618
vn 5.1482 -6.2742 5.8422
vn 5.9132 -5.3022 6.0762
vn 6.4053 -4.1252 6.4773
vn 7.0609 -3.0180 6.4059
vn 6.1611 1.3840 7.7541
vn 6.2391 1.3051 7.7052
vn 6.5773 1.0896 7.4533
vn 6.4817 1.1903 7.5214
vn 6.4983 0.3589 7.5924
vn 6.9182 0.1451 7.2192
vn 7.0022 0.8499 7.0885
vn 6.9075 0.9770 7.1646
vn 5.3940 -2.3731 8.0791
vn 4.0802 -4.5620 7.9082
vn 4.7019 -4.6169 7.5218
vn 5.9511 -2.3959 7.6710
vn 2.7071 -5.9520 7.5661
vn 3.1753 -5.8229 7.4841
vn 1.2169 -7.8672 6.0520
vn 1.6730 -7.9332 5.8537
vn 2.1039 -8.3202 5.1330
vn 3.8813 -6.0081 6.9885
vn 7.4850 0.4742 6.6143
vn 7.2484 0.7537 6.8478
vn 7.3042 0.5701 6.8062
vn 7.5331 0.1810 6.5741
vn 7.1802 -0.3378 6.9520
vn 7.3439 -1.0728 6.7019
vn 6.2279 -2.8875 7.2716
vn 6.2912 -3.6328 6.8719
vn 5.0790 -4.9570 7.0450
vn 5.1848 -5.4626 6.5786
vn 4.1481 -6.5081 6.3591
vn 3.9222 -7.1954 5.7309
vn 1.9830 -8.8441 4.2250
vn 1.4519 -9.2619 3.4799
vn 6.8870 -0.1500 7.2490
vn 5.1641 -6.0832 6.0272
vn 6.2618 -4.4289 6.4168
vn 7.3789 -1.9978 6.4468
vn 0.9009 -9.4901 3.0210
vn 3.5702 -7.8583 5.0498
vn 7.6677 -0.3681 6.4087
vn 7.6582 0.0660 6.4302
vn 7.5371 -1.0033 6.4951
vn 7.6128 -0.4189 6.4707
vn 7.3758 -0.9163 6.6901
vn 7.2141 -1.6769 6.7190
vn 0.6567 -8.8177 4.6708
vn 0.0549 -9.2373 3.8301
vn -0.3981 -9.5168 3.0449
vn 1.8879 -6.5239 7.3399
vn 2.9057 -6.8668 6.6636
vn 1.5651 -8.1256 5.6148
vn 0.4932 -7.6671 6.4010
vn 5.1128 -3.5470 7.8280
vn 5.9150 -3.1559 7.4198
vn 5.1297 -4.2491 7.4587
vn 4.2009 -4.3871 7.9439
vn 1.1051 -5.1459 8.5028
vn -0.4650 -5.7302 8.1822
vn -0.3311 -2.1460 9.7614
vn 4.0802 -3.4662 8.4462
vn 3.1760 -3.8682 8.6574
vn 2.6001 -6.2280 7.3791
vn 1.1819 -8.0033 5.8779
vn 5.8771 1.5280 7.9451
vn 5.7774 1.5680 8.0102
vn -7.1268 -0.0049 7.0149
vn -7.3370 -0.9791 6.7239
vn -7.3601 1.3031 6.6431
vn -7.0441 2.0079 6.8080
vn -7.3167 -1.8791 6.5524
vn -7.4766 0.6737 6.6066
vn -6.6769 4.8428 5.6539
vn -6.3176 5.2303 5.7212
vn -5.8431 5.5814 5.8912
vn -1.4260 -8.2509 5.4671
vn -1.6621 -8.4450 5.0911
vn -2.8620 -6.6761 6.8731
vn -2.7718 -6.4990 7.0767
vn -1.7380 -8.5730 4.8459
vn -2.5669 -6.7761 6.8917
vn -2.8140 -5.3200 7.9862
vn -3.4202 -5.2989 7.7604
vn -3.6029 -5.1668 7.7668
vn -4.4111 -0.7001 8.9472
vn -4.7899 -1.7002 8.6120
vn -4.8782 -1.2991 8.6323
vn -4.3774 -0.5378 8.9749
vn -6.1051 -4.6510 6.4107
vn -6.2511 -3.4260 7.0133
vn -6.4198 -2.0901 7.3768
vn -5.4032 -0.8231 8.3742
vn -4.8239 -0.3150 8.7539
vn -6.0022 3.5702 7.1573
vn -6.6019 2.7919 6.9729
vn -6.2981 4.3619 6.4271
vn -5.6937 4.9549 6.5598
vn -6.8867 1.8990 6.9977
vn -6.6418 3.6379 6.5308
vn -5.5922 6.1949 5.5092
vn -5.3974 6.4021 5.4664
vn -4.9586 6.6069 5.6357
vn -4.2571 6.9693 5.7712
vn -4.8561 5.4871 6.8051
vn -3.4151 7.5630 5.5802
vn -3.9521 6.0490 6.9131
vn -4.2431 4.6582 7.7652
vn -5.1468 4.1890 7.4808
vn 1.6780 -0.7682 9.8282
vn -0.5269 4.0590 9.1240
vn -0.2651 7.0636 7.0736
vn 2.7220 1.4620 9.5107
vn -2.0660 5.0320 8.3911
vn -1.7229 7.2071 6.7148
vn -1.3841 8.9012 4.3421
vn -0.2678 9.0559 4.2331
vn 3.4300 4.3161 8.3430
vn 2.5480 -6.9020 6.7728
vn 1.7700 -6.2147 7.6318
vn 3.0090 -7.7942 5.4951
vn 1.2502 -9.3341 3.3632
vn 0.9378 -8.9496 4.3617
vn 0.4399 -8.4141 5.3860
vn -2.7970 -0.0689 9.6006
vn -2.7952 0.1979 9.5993
vn -2.3448 -0.9699 9.6727
vn -2.5340 -1.2232 9.5960
vn -2.7060 1.2839 9.5409
vn -1.7611 -0.2560 9.8404
vn -1.0422 -2.8081 9.5409
vn -2.4389 -2.5689 9.3516
vn -3.0430 -2.6129 9.1604
vn -6.0209 1.3170 7.8749
vn -5.3038 1.7517 8.2946
vn -5.0738 0.9400 8.5658
vn -5.7259 0.7510 8.1639
vn -4.5250 2.0109 8.6879
vn -4.3650 1.0290 8.9380
vn -4.3661 0.8010 8.9608
vn -5.0827 0.7550 8.5788
vn -5.7388 0.6460 8.1639
vn -6.0600 0.4529 7.9418
vn -6.1489 0.4760 7.8718
vn -5.9902 0.1951 8.0050
vn -6.2019 0.0891 7.8440
vn -6.6882 -0.0352 7.4342
vn -6.5040 0.7179 7.5620
vn -6.8951 -2.4991 6.7980
vn -6.8408 -1.2109 7.1928
vn -6.7829 -3.7249 6.3339
vn -6.0829 2.3472 7.5821
vn -6.6289 1.5781 7.3189
vn -6.8498 0.7320 7.2488
vn -4.4203 3.3370 8.3262
vn -5.2792 2.9499 7.9642
vn 0.3320 -2.1471 9.7611
vn -1.0761 1.4720 9.8324
vn -2.3911 3.0088 9.2320
vn -4.4299 -3.3172 8.3290
vn -4.7341 -3.0350 8.2691
vn -3.6189 -4.9590 7.8938
vn -5.2780 0.4440 8.4820
vn -5.8577 0.4038 8.0947
vn -6.1669 0.3799 7.8629
vn -4.9849 -2.6969 8.2388
vn -3.7161 -4.7322 7.9873
vn -2.7891 -3.3651 8.9943
vn -3.8611 -3.4869 8.5401
vn -2.1680 1.1780 9.6908
vn -4.1709 0.5361 9.0728
vn -3.2000 -6.2090 7.1560
vn -4.2683 -6.2331 6.5521
vn -4.1718 -2.1058 8.8409
vn -3.1890 -2.0251 9.2590
vn -5.0441 -6.1020 6.1092
vn -4.6560 -2.1460 8.5858
vn -4.3039 -0.8286 8.9883
vn -3.8445 -0.8260 9.1944
vn -2.9328 -0.8221 9.5249
vn -5.5731 -3.3390 7.6021
vn -5.2812 -5.3872 6.5640
vn -4.3369 -5.8178 6.8807
vn -4.5888 -3.7089 8.0738
vn -3.2238 -6.1258 7.2167
vn -3.4029 -3.9051 8.5540
vn -3.0311 0.0210 9.5295
vn -4.3672 -0.1770 8.9942
vn -1.8209 5.4289 8.1982
vn -3.1969 5.1678 7.9419
vn -4.7817 4.8489 7.3228
vn -5.6059 -0.2158 8.2781
vn -1.1979 2.5119 9.6050
vn -3.8892 2.0121 8.9903
vn -1.3273 2.2780 9.6462
vn -3.8739 1.9150 9.0181
vn -5.1524 1.7240 8.3953
vn -5.2272 1.7471 8.3441
vn 0.9888 5.2681 8.4421
vn 0.4210 1.3731 9.8963
vn -0.2480 5.5272 8.3300
vn -1.1451 0.8430 9.8984
vn -1.6831 -3.8888 9.0578
vn -0.3219 -3.3743 9.4080
vn -0.7520 -6.8363 7.2594
vn -0.6411 -6.6964 7.3991
vn -1.4721 -6.5640 7.3991
vn -1.2040 -6.4843 7.5169
vn -0.4750 -2.3027 9.7197
vn -1.0740 -2.2140 9.6925
vn -1.0044 -0.8678 9.9115
vn -0.4176 -0.9432 9.9467
vn 0.8687 2.7377 9.5786
vn 0.8090 3.2079 9.4369
vn -0.3520 2.2971 9.7262
vn -1.4210 -3.0229 9.4257
vn -1.7001 -5.2851 8.3173
vn -1.4100 -8.6548 4.8069
vn -1.7070 -6.8681 7.0651
vn -2.1248 0.2969 9.7671
vn -2.4830 -3.9681 8.8368
vn -1.0670 5.4749 8.2998
vn -2.0400 -6.2785 7.5112
vn -2.2080 -6.3220 7.4268
vn -1.8596 -0.8350 9.7900
vn -1.9880 -2.0819 9.5767
vn -6.6533 -0.9387 7.4062
vn -5.9557 -0.3471 8.0255
vn -5.5765 -0.0627 8.3005
vn -5.6898 5.8968 5.7318
vn -6.8598 2.8051 6.7138
vn -7.0231 0.9573 7.0541
vn -6.1930 4.6802 6.3041
vn -6.8728 0.1260 7.2628
vn -6.6449 -2.7009 6.9678
vn -5.6768 -5.5810 6.0520
vn -6.1677 -4.7029 6.3120
vn -4.8340 -2.0139 8.5192
vn -4.4497 -0.7916 8.9204
vn -0.6310 -9.4358 3.2509
vn -1.7669 -8.9518 4.0919
vn -1.0868 -9.0331 4.1499
vn -0.1369 -9.3815 3.4595
vn -2.9630 -8.1873 4.9182
vn -2.0990 -8.4747 4.8759
vn -1.4298 -8.7069 4.7058
vn -0.6671 -9.1596 3.9569
vn -0.0089 -9.4544 3.2580
vn -4.1478 -7.0936 5.6987
vn -3.2181 -7.6084 5.6352
vn -5.5609 -5.1958 6.4869
vn -4.6731 -6.0197 6.4750
vn -3.8321 -6.5939 6.4680
vn -2.4249 -7.9691 5.5329
vn -6.3807 -3.1142 7.0419
vn -5.8451 -3.7580 7.1911
vn -6.8313 -2.4001 6.8973
vn -7.1227 -1.4433 6.8690
vn -6.8333 -1.9982 7.0224
vn -6.4620 -2.5861 7.1801
vn -0.8258 -9.5355 2.8971
vn -3.2220 -8.3720 4.4191
vn -2.6754 -8.7513 4.0320
vn -1.0420 -9.4977 2.9509
vn -4.8265 -6.8400 5.4698
vn -4.0398 -7.6380 5.0340
vn -5.9077 -5.2998 6.0837
vn -5.1494 -6.2804 5.8344
vn -7.0577 -3.0151 6.4108
vn -6.4059 -4.1297 6.4738
vn -6.1637 1.3838 7.7520
vn -6.4840 1.1909 7.5193
vn -6.5799 1.0899 7.4509
vn -6.2419 1.3051 7.7030
vn -6.9119 0.9781 7.1602
vn -7.0039 0.8511 7.0867
vn -6.9198 0.1481 7.2177
vn -6.5000 0.3601 7.5908
vn -5.3942 -2.3729 8.0791
vn -5.9511 -2.3952 7.6712
vn -4.7021 -4.6160 7.5221
vn -4.0779 -4.5616 7.9096
vn -3.1719 -5.8143 7.4922
vn -2.7051 -5.9490 7.5691
vn -3.8901 -5.9923 6.9971
vn -2.1029 -8.3218 5.1308
vn -1.6580 -7.9257 5.8681
vn -1.2139 -7.8653 6.0551
vn -7.4851 0.4751 6.6142
vn -7.5332 0.1808 6.5741
vn -7.3051 0.5720 6.8051
vn -7.2506 0.7535 6.8456
vn -7.3451 -1.0693 6.7012
vn -7.1812 -0.3341 6.9512
vn -6.2922 -3.6329 6.8710
vn -6.2283 -2.8872 7.2714
vn -5.1848 -5.4637 6.5777
vn -5.0798 -4.9567 7.0446
vn -3.9209 -7.1959 5.7311
vn -4.1701 -6.4971 6.3560
vn -1.4498 -9.2630 3.4778
vn -1.9989 -8.8472 4.2109
vn -6.8869 -0.1509 7.2489
vn -6.2599 -4.4270 6.4200
vn -5.1612 -6.0809 6.0320
vn -7.3790 -1.9937 6.4479
vn -3.5610 -7.8560 5.0598
vn -0.8831 -9.4901 3.0261
vn -7.6568 0.0671 6.4319
vn -7.6668 -0.3670 6.4098
vn -7.6110 -0.4169 6.4729
vn -7.5348 -1.0021 6.4978
vn -7.2153 -1.6789 6.7172
vn -7.3770 -0.9149 6.6890
vn -0.0521 -9.2393 3.8252
vn -0.6528 -8.8228 4.6618
vn 0.3993 -9.5174 3.0431
vn -1.8891 -6.5280 7.3360
vn -0.4900 -7.6713 6.3962
vn -1.5630 -8.1320 5.6060
vn -2.9077 -6.8689 6.6606
vn -5.1122 -3.5480 7.8280
vn -4.2010 -4.3889 7.9429
vn -5.1299 -4.2487 7.4588
vn -5.9150 -3.1559 7.4198
vn 0.4660 -5.7301 8.1822
vn -1.1052 -5.1471 8.5021
vn -3.1750 -3.8692 8.6573
vn -4.0772 -3.4671 8.4472
vn -2.5992 -6.2270 7.3803
vn -1.1780 -8.0031 5.8790
vn -5.7774 1.5680 8.0102
vn -5.8784 1.5280 7.9442
vn -3.5562 0.8200 9.3103
vn -3.6382 1.8980 9.1193
vn -3.5399 0.5770 9.3347
vn -3.4451 3.3729 8.7610
vn -3.2001 4.9321 8.0892
vn -2.8800 6.6352 6.9051
vn -2.4041 8.2822 5.0622
vn 0.5339 4.0600 9.1231
vn 1.0770 1.4730 9.8321
vn 0.2790 7.0648 7.0718
vn 0.2791 9.0564 4.2312
vn 4.0220 8.5848 3.1820
vn 4.6478 8.0210 3.7498
vn 4.4609 7.9988 4.0150
vn 3.9900 8.4740 3.5030
vn 4.0630 8.0763 4.2739
vn 3.5889 8.5442 3.7571
vn 3.5815 8.6179 3.5923
vn 3.4912 8.6163 3.6839
vn 4.0192 8.1237 4.2250
vn 4.1149 8.1229 4.1335
vn 3.5473 8.4595 3.9816
vn 3.6159 8.5408 3.7390
vn 4.1289 8.0542 4.2523
vn 3.9618 8.0101 4.4880
vn 2.6720 9.0754 3.2399
vn 3.2519 8.6257 3.8759
vn 3.5163 8.2262 4.4683
vn 2.8288 8.7329 3.9667
vn 1.2559 9.6436 2.3288
vn 2.0049 9.2859 3.1229
vn 1.3020 9.7933 1.5480
vn 1.9530 9.5370 2.2870
vn -2.8258 7.7490 5.6540
vn 0.6912 9.8751 1.4159
vn 0.5231 9.7481 2.1680
vn -3.0332 7.0462 6.4149
vn -2.7600 -8.7097 4.0650
vn -1.2120 -9.5902 2.5611
vn -1.0790 -9.6940 2.2050
vn -2.3231 -9.1867 3.1949
vn -0.5418 -9.6780 2.4581
vn -0.2971 -9.6019 2.7777
vn -0.3220 -9.6436 2.6262
vn -0.5101 -9.7353 2.2280
vn 0.0100 -9.6093 2.7681
vn -0.3689 -9.5254 3.0218
vn -0.3320 -9.5081 3.0800
vn 0.0600 -9.5995 2.8012
vn -0.3698 -9.6616 2.5529
vn -0.0015 -9.6778 2.5179
vn 0.1220 -9.6804 2.5051
vn -0.3418 -9.7081 2.3741
vn -0.4500 -9.7817 2.0289
vn -0.1534 -9.8448 1.7481
vn -0.1880 -9.8506 1.7118
vn -0.3671 -9.7396 2.2372
vn -0.0547 -9.8216 1.8798
vn -0.0619 -9.7314 2.3013
vn -0.4404 -9.8656 1.5738
vn -0.2656 -9.8845 1.4918
vn -0.1801 -9.6016 2.7887
vn -0.3020 -9.5271 3.0238
vn -0.6795 -9.8295 1.7084
vn -0.5701 -9.8395 1.6911
vn -0.1800 -9.5567 2.9390
vn 0.0021 -9.6386 2.6641
vn -0.4972 -9.8947 1.3596
vn -0.5666 -9.8667 1.5258
vn 0.2288 -9.6620 2.5678
vn 0.6080 -9.6711 2.4699
vn 0.0613 -9.9019 1.3959
vn -0.3241 -9.9003 1.3710
vn -0.0010 -9.7229 2.3378
vn 0.8290 -9.6840 2.3521
vn -0.0040 -9.9384 1.1079
vn 0.4163 -9.9150 1.2324
vn -0.8369 -9.6851 2.3449
vn -0.6160 -9.6764 2.4471
vn -0.0758 -9.9097 1.3390
vn -0.4338 -9.9169 1.2114
vn -0.0040 -9.6250 2.7130
vn -0.1863 -9.6566 2.5913
vn 0.5237 -9.8791 1.4589
vn 0.4036 -9.8922 1.4080
vn 0.3050 -9.5270 3.0239
vn 0.1440 -9.5532 2.9521
vn 0.6826 -9.8293 1.7084
vn 0.4785 -9.8666 1.5563
vn 0.0792 -9.7366 2.2785
vn 0.2000 -9.6029 2.7829
vn 0.4411 -9.8656 1.5736
vn 0.5671 -9.8397 1.6906
vn 0.1554 -9.8450 1.7471
vn 0.0564 -9.8240 1.8669
vn 0.1899 -9.8509 1.7096
vn 0.2670 -9.8846 1.4909
vn 0.3607 -9.7113 2.3581
vn 0.4652 -9.7817 2.0252
vn 0.3706 -9.6620 2.5510
vn 0.3691 -9.7398 2.2362
vn -0.0110 -9.6090 2.7690
vn 0.0031 -9.6780 2.5170
vn -0.1194 -9.6840 2.4911
vn -0.0621 -9.5992 2.8020
vn 0.3210 -9.6432 2.6279
vn 0.3670 -9.5244 3.0251
vn 0.3311 -9.5070 3.0833
vn 0.2970 -9.6012 2.7799
vn 1.2101 -9.5902 2.5621
vn 0.5411 -9.6779 2.4589
vn 1.0770 -9.6938 2.2070
vn 0.5110 -9.7350 2.2290
vn 3.0358 7.0531 6.4061
vn 2.7658 -8.7008 4.0800
vn 2.8413 7.7374 5.6622
vn 2.3180 -9.1866 3.1989
vn -1.3020 9.7947 1.5390
vn -0.6850 9.8758 1.4140
vn -0.5149 9.7488 2.1670
vn -1.2548 9.6462 2.3188
vn -2.6750 9.0763 3.2350
vn -1.9558 9.5392 2.2758
vn -2.0080 9.2895 3.1100
vn -2.8310 8.7348 3.9609
vn -3.5482 8.4603 3.9791
vn -3.2529 8.6253 3.8759
vn -3.5160 8.2270 4.4670
vn -3.9602 8.0114 4.4872
vn -3.5755 8.6233 3.5854
vn -3.6121 8.5431 3.7374
vn -4.1273 8.0562 4.2500
vn -4.1129 8.1258 4.1299
vn -3.5906 8.5475 3.7482
vn -3.4909 8.6192 3.6774
vn -4.0244 8.1155 4.2359
vn -4.0871 8.0501 4.3001
vn -4.0221 8.5936 3.1581
vn -3.9929 8.4792 3.4872
vn -4.5002 7.9733 4.0219
vn -4.6689 8.0180 3.7299
vn -3.9860 8.3318 3.8331
vn -2.6280 8.7260 4.1170
vn -1.8220 9.3669 2.9902
vn -3.1794 8.9801 3.0412
vn -0.4600 9.5339 2.9820
vn -0.9310 9.5218 2.9100
vn -1.4400 8.9538 4.2137
vn -0.6932 8.9978 4.3080
vn -0.3080 8.9092 4.5311
vn 0.0940 8.7598 4.8226
vn 0.0039 9.3481 3.5514
vn -0.2098 9.4685 3.2098
vn 0.0759 8.4777 5.3030
vn 0.6520 8.6036 5.0550
vn -0.0030 8.9989 4.3612
vn 0.3181 9.1358 4.0541
vn -0.6279 8.4853 5.2540
vn -0.0950 8.6493 5.0180
vn 0.0102 9.3508 3.5444
vn -0.3150 9.1387 4.0479
vn 0.6412 8.9623 4.3893
vn 0.2819 8.8297 4.6858
vn 0.4731 9.5361 2.9732
vn 0.2268 9.4718 3.1989
vn 1.8309 9.3585 3.0110
vn 0.9390 9.5198 2.9140
vn 1.4440 8.9466 4.2278
vn 2.6371 8.7153 4.1340
vn 3.9868 8.3196 3.8588
vn 3.1871 8.9679 3.0691
vt 0.803294 0.206299
vt 0.805773 0.225980
vt 0.778914 0.226873
vt 0.775481 0.203478
vt 0.808833 0.243221
vt 0.782687 0.247416
vt 0.754801 0.252303
vt 0.750542 0.227506
vt 0.746188 0.199529
vt 0.644417 0.444686
vt 0.657410 0.487050
vt 0.618384 0.501649
vt 0.605128 0.458112
vt 0.666556 0.522110
vt 0.627361 0.537831
vt 0.585783 0.547381
vt 0.577708 0.511268
vt 0.565937 0.468200
vt 0.743306 -0.012690
vt 0.773704 0.001981
vt 0.771905 0.136421
vt 0.741536 0.126864
vt 0.803160 0.018753
vt 0.801283 0.146344
vt 0.800261 0.166009
vt 0.771156 0.157858
vt 0.740951 0.149179
vt 0.892069 0.210536
vt 0.890944 0.220593
vt 0.873407 0.222002
vt 0.873485 0.210127
vt 0.890878 0.229479
vt 0.874278 0.232591
vt 0.854857 0.236168
vt 0.853158 0.223721
vt 0.852272 0.209728
vt 0.905366 0.219796
vt 0.904271 0.226969
vt 0.907774 0.211716
vt 0.920181 0.214115
vt 0.916568 0.220042
vt 0.914231 0.225325
vt 0.933208 0.221224
vt 0.928561 0.224229
vt 0.924082 0.221758
vt 0.928385 0.217650
vt 0.924986 0.226456
vt 0.920845 0.225188
vt 0.937329 0.226361
vt 0.938360 0.229142
vt 0.933097 0.229737
vt 0.932313 0.228021
vt 0.938682 0.233913
vt 0.933356 0.233514
vt 0.928914 0.233456
vt 0.928798 0.230422
vt 0.928306 0.229425
vt 0.975002 0.118647
vt 0.980962 0.203737
vt 0.965270 0.210064
vt 0.960679 0.203119
vt 0.984333 0.145913
vt 0.967740 0.217509
vt 0.953469 0.221168
vt 0.951675 0.215815
vt 0.948182 0.210595
vt 0.953219 0.196282
vt 0.966049 0.106639
vt 0.942013 0.204963
vt 0.932013 0.198880
vt 0.941768 0.189067
vt 0.952952 0.094226
vt 0.898325 0.187944
vt 0.904475 0.174590
vt 0.925078 0.181430
vt 0.917018 0.192937
vt 0.911523 0.067852
vt 0.934297 0.080425
vt 0.881594 0.169089
vt 0.886667 0.058432
vt 0.877209 0.183738
vt 0.853699 0.179213
vt 0.856630 0.163333
vt 0.860166 0.048764
vt 0.801201 0.186103
vt 0.772648 0.180318
vt 0.742771 0.173484
vt 0.874632 0.197434
vt 0.894356 0.199777
vt 0.852368 0.194805
vt 0.911469 0.202897
vt 0.925096 0.207165
vt 0.939406 0.216682
vt 0.934063 0.212103
vt 0.702972 0.500646
vt 0.709121 0.522415
vt 0.672411 0.545232
vt 0.735132 0.477213
vt 0.741555 0.497301
vt 0.746181 0.511583
vt 0.713450 0.537160
vt 0.676618 0.560152
vt 0.633004 0.561651
vt 0.590955 0.571309
vt 0.636824 0.576846
vt 0.594503 0.586548
vt 0.618379 0.125878
vt 0.618313 0.107182
vt 0.648355 0.109493
vt 0.648313 0.128814
vt 0.619074 -0.033205
vt 0.649434 -0.031286
vt 0.680587 -0.027572
vt 0.679285 0.113582
vt 0.679142 0.133895
vt 0.684883 0.188791
vt 0.653521 0.185305
vt 0.650117 0.153805
vt 0.681100 0.158675
vt 0.622711 0.183427
vt 0.619967 0.151034
vt 0.658086 0.226796
vt 0.626130 0.227042
vt 0.689997 0.226979
vt 0.694614 0.262354
vt 0.662039 0.266382
vt 0.628756 0.269537
vt 0.638340 0.581412
vt 0.596262 0.593075
vt 0.678890 0.566002
vt 0.686084 0.686991
vt 0.644724 0.713273
vt 0.600595 0.730573
vt 0.497032 0.277935
vt 0.498316 0.231073
vt 0.531462 0.230291
vt 0.531835 0.275759
vt 0.499440 0.183893
vt 0.531642 0.183461
vt 0.563133 0.183161
vt 0.563948 0.229251
vt 0.565248 0.273787
vt 0.500172 0.125748
vt 0.531016 0.125308
vt 0.531418 0.150231
vt 0.499981 0.150615
vt 0.561215 0.125160
vt 0.562131 0.150123
vt 0.500147 0.106960
vt 0.530668 0.106496
vt 0.499967 -0.034263
vt 0.530267 -0.034872
vt 0.560366 -0.034830
vt 0.560705 0.106410
vt 0.502775 0.749156
vt 0.501225 0.605707
vt 0.550799 0.603132
vt 0.552532 0.741796
vt 0.500116 0.590235
vt 0.548541 0.589461
vt 0.497848 0.550508
vt 0.542032 0.550262
vt 0.545756 0.574144
vt 0.499116 0.574513
vt 0.536714 0.514854
vt 0.529615 0.473018
vt 0.496490 0.515498
vt 0.495529 0.474421
vt 0.593090 0.182923
vt 0.595141 0.227971
vt 0.596853 0.271676
vt 0.591194 0.150113
vt 0.589875 0.125031
vt 0.589543 0.106412
vt 0.589692 -0.034276
vt 0.829645 0.155523
vt 0.827884 0.173197
vt 0.832084 0.034953
vt 0.830568 0.224979
vt 0.832951 0.239527
vt 0.828881 0.208423
vt 0.720845 0.227462
vt 0.725405 0.257793
vt 0.715887 0.194070
vt 0.712121 0.165707
vt 0.710150 0.140885
vt 0.710515 0.119276
vt 0.712015 -0.021886
vt 0.900821 0.266021
vt 0.912453 0.254802
vt 0.917990 0.260439
vt 0.906804 0.273999
vt 0.921398 0.245868
vt 0.926600 0.249188
vt 0.932257 0.252522
vt 0.923944 0.265911
vt 0.913115 0.281599
vt 0.930270 0.271510
vt 0.919455 0.288764
vt 0.938535 0.256358
vt 0.946841 0.260879
vt 0.938407 0.277509
vt 0.927327 0.295892
vt 0.958846 0.266373
vt 0.949887 0.284233
vt 0.972936 0.232919
vt 0.963228 0.260771
vt 0.950862 0.289562
vt 0.938277 0.303358
vt 0.870503 0.294758
vt 0.887066 0.279360
vt 0.893802 0.289715
vt 0.878111 0.307905
vt 0.900696 0.299361
vt 0.885689 0.319814
vt 0.907034 0.307711
vt 0.892077 0.329274
vt 0.914440 0.315580
vt 0.899037 0.337682
vt 0.756066 0.615632
vt 0.749691 0.520166
vt 0.778637 0.496459
vt 0.785453 0.578881
vt 0.773528 0.487046
vt 0.799844 0.460023
vt 0.806862 0.470366
vt 0.814336 0.537966
vt 0.768111 0.474021
vt 0.761647 0.455755
vt 0.787036 0.432094
vt 0.793562 0.448455
vt 0.724817 0.448065
vt 0.752243 0.428351
vt 0.713734 0.413315
vt 0.742637 0.396004
vt 0.770176 0.376857
vt 0.778660 0.406599
vt 0.874593 0.436616
vt 0.845372 0.487858
vt 0.836947 0.436445
vt 0.865493 0.401823
vt 0.829189 0.426575
vt 0.857326 0.392467
vt 0.822633 0.416138
vt 0.850814 0.382919
vt 0.816005 0.401880
vt 0.844224 0.370627
vt 0.807634 0.380033
vt 0.835693 0.352824
vt 0.799048 0.354554
vt 0.826822 0.332108
vt 0.827815 0.190984
vt 0.867161 0.343474
vt 0.873647 0.354222
vt 0.880304 0.363145
vt 0.850552 0.312293
vt 0.858974 0.328903
vt 0.888942 0.372140
vt 0.898651 0.392633
vt 0.908294 0.346363
vt 0.918764 0.354417
vt 0.936075 0.320422
vt 0.924549 0.323737
vt 0.937041 0.241794
vt 0.931647 0.240205
vt 0.926849 0.238884
vt 0.954508 0.235692
vt 0.952130 0.246812
vt 0.943355 0.244075
vt 0.945266 0.234778
vt 0.984139 0.180995
vt 0.979921 0.205358
vt 0.964876 0.250140
vt 0.968157 0.236514
vt 0.954638 0.227469
vt 0.945055 0.228458
vt 0.943894 0.224100
vt 0.985475 0.161798
vt 0.968880 0.225986
vt 0.693069 0.468461
vt 0.680834 0.429680
vt 0.716142 0.543913
vt 0.723035 0.652954
vt 0.201104 0.197996
vt 0.228162 0.198130
vt 0.222371 0.220999
vt 0.196447 0.217235
vt 0.256786 0.196907
vt 0.249857 0.224406
vt 0.243405 0.248727
vt 0.216611 0.241044
vt 0.191504 0.234180
vt 0.344364 0.448840
vt 0.384539 0.462343
vt 0.372825 0.506428
vt 0.332322 0.491978
vt 0.424637 0.471221
vt 0.414554 0.514957
vt 0.409231 0.551714
vt 0.366157 0.543484
vt 0.324932 0.528049
vt 0.269751 -0.015666
vt 0.268886 0.124949
vt 0.239482 0.131670
vt 0.240586 -0.005263
vt 0.266967 0.147224
vt 0.237515 0.153130
vt 0.209081 0.158159
vt 0.210833 0.138398
vt 0.211959 0.006738
vt 0.115263 0.190303
vt 0.133196 0.192723
vt 0.131506 0.204649
vt 0.114788 0.200572
vt 0.153631 0.195346
vt 0.150834 0.209255
vt 0.147516 0.221523
vt 0.129145 0.215153
vt 0.113493 0.209514
vt 0.100898 0.204856
vt 0.100976 0.197469
vt 0.091515 0.201529
vt 0.090104 0.195814
vt 0.087568 0.189225
vt 0.099947 0.188950
vt 0.068855 0.198404
vt 0.070599 0.196392
vt 0.074891 0.199681
vt 0.073457 0.200971
vt 0.073730 0.194006
vt 0.077745 0.197866
vt 0.080871 0.200743
vt 0.078265 0.202110
vt 0.077131 0.203094
vt 0.072408 0.202547
vt 0.067382 0.201006
vt 0.076484 0.203998
vt 0.075843 0.207004
vt 0.071517 0.206280
vt 0.066265 0.205734
vt 0.038123 0.067088
vt 0.050380 0.170776
vt 0.044637 0.176824
vt 0.030620 0.078273
vt 0.061080 0.180605
vt 0.056762 0.185175
vt 0.054068 0.190200
vt 0.040860 0.183781
vt 0.025475 0.091464
vt 0.112986 0.166684
vt 0.094242 0.168556
vt 0.088639 0.155687
vt 0.109517 0.152370
vt 0.078782 0.171855
vt 0.071232 0.160304
vt 0.062636 0.049033
vt 0.082302 0.040333
vt 0.105569 0.033637
vt 0.130165 0.030108
vt 0.132148 0.150497
vt 0.156030 0.026120
vt 0.156596 0.148358
vt 0.156816 0.164612
vt 0.133789 0.165769
vt 0.233456 0.175376
vt 0.205580 0.178119
vt 0.262689 0.171264
vt 0.114786 0.179161
vt 0.134053 0.179837
vt 0.155703 0.180390
vt 0.083988 0.181382
vt 0.097847 0.179474
vt 0.062860 0.194931
vt 0.064956 0.191632
vt 0.068496 0.188322
vt 0.320783 0.552002
vt 0.281293 0.528286
vt 0.286364 0.505661
vt 0.317916 0.567525
vt 0.277919 0.543685
vt 0.242441 0.516018
vt 0.246556 0.501141
vt 0.252540 0.480320
vt 0.406559 0.576147
vt 0.362672 0.568001
vt 0.404842 0.591762
vt 0.360549 0.583667
vt 0.384935 0.129288
vt 0.356292 0.131866
vt 0.357383 0.112651
vt 0.385742 0.110681
vt 0.326740 0.135920
vt 0.328183 0.115720
vt 0.328432 -0.024404
vt 0.357318 -0.026583
vt 0.385545 -0.027984
vt 0.317023 0.190187
vt 0.322987 0.160441
vt 0.353049 0.156649
vt 0.347727 0.187869
vt 0.382241 0.154300
vt 0.377847 0.186519
vt 0.371920 0.230015
vt 0.340473 0.229043
vt 0.366811 0.272628
vt 0.333944 0.268328
vt 0.301832 0.262769
vt 0.309067 0.227905
vt 0.403912 0.598399
vt 0.359571 0.588299
vt 0.402225 0.739187
vt 0.355497 0.724527
vt 0.310676 0.699308
vt 0.316244 0.573452
vt 0.462483 0.277377
vt 0.465259 0.231703
vt 0.429348 0.276615
vt 0.433081 0.231766
vt 0.436219 0.185601
vt 0.467344 0.184822
vt 0.468708 0.151603
vt 0.469559 0.126698
vt 0.438484 0.152594
vt 0.440000 0.127671
vt 0.469930 0.107905
vt 0.440691 0.108955
vt 0.440990 -0.031014
vt 0.470075 -0.032793
vt 0.452125 0.746527
vt 0.451315 0.606162
vt 0.451592 0.592285
vt 0.452427 0.576742
vt 0.453601 0.552567
vt 0.461348 0.474499
vt 0.456145 0.516782
vt 0.402361 0.231029
vt 0.406815 0.185955
vt 0.398142 0.275059
vt 0.412283 0.128230
vt 0.410143 0.153229
vt 0.413099 -0.029406
vt 0.413042 0.109676
vt 0.182072 0.162017
vt 0.183068 0.144129
vt 0.183629 0.017752
vt 0.168384 0.227793
vt 0.172525 0.213436
vt 0.176264 0.197112
vt 0.271776 0.256453
vt 0.278817 0.226589
vt 0.286566 0.193705
vt 0.296851 0.141222
vt 0.292717 0.165759
vt 0.298563 0.119711
vt 0.299220 -0.021363
vt 0.098463 0.244697
vt 0.091475 0.251760
vt 0.082329 0.236142
vt 0.088580 0.231423
vt 0.084209 0.258378
vt 0.075693 0.240611
vt 0.069526 0.225621
vt 0.075562 0.223267
vt 0.081144 0.220838
vt 0.076967 0.264545
vt 0.068647 0.245148
vt 0.068185 0.270390
vt 0.059729 0.249742
vt 0.053922 0.231370
vt 0.062793 0.228344
vt 0.047342 0.254400
vt 0.041194 0.234626
vt 0.056243 0.275980
vt 0.042536 0.246028
vt 0.032930 0.213259
vt 0.026193 0.182243
vt 0.124885 0.278535
vt 0.115825 0.290785
vt 0.102330 0.269833
vt 0.110304 0.260402
vt 0.106917 0.301804
vt 0.094301 0.278494
vt 0.099470 0.310501
vt 0.086971 0.285933
vt 0.091559 0.318013
vt 0.078601 0.292704
vt 0.233553 0.623526
vt 0.201561 0.582186
vt 0.208169 0.498318
vt 0.239332 0.524783
vt 0.170840 0.535210
vt 0.178541 0.468582
vt 0.185811 0.458265
vt 0.213230 0.488751
vt 0.218579 0.475338
vt 0.192390 0.446613
vt 0.199389 0.429988
vt 0.225108 0.456541
vt 0.234984 0.428485
vt 0.262761 0.450337
vt 0.208725 0.404065
vt 0.218718 0.373931
vt 0.245673 0.395504
vt 0.274393 0.414799
vt 0.110385 0.417403
vt 0.120286 0.389635
vt 0.148011 0.429636
vt 0.139035 0.477132
vt 0.129229 0.381003
vt 0.156324 0.420151
vt 0.136501 0.371938
vt 0.163454 0.409940
vt 0.144070 0.360043
vt 0.170879 0.395763
vt 0.154074 0.342726
vt 0.180591 0.373939
vt 0.164738 0.322521
vt 0.190945 0.348516
vt 0.179623 0.179808
vt 0.115579 0.339049
vt 0.123115 0.328915
vt 0.108042 0.347269
vt 0.132744 0.315101
vt 0.142835 0.299255
vt 0.087797 0.365966
vt 0.098482 0.355236
vt 0.069705 0.321295
vt 0.081279 0.325393
vt 0.067437 0.299276
vt 0.054752 0.281670
vt 0.072062 0.213310
vt 0.066558 0.213952
vt 0.076934 0.212822
vt 0.050532 0.204575
vt 0.059706 0.205400
vt 0.060028 0.215097
vt 0.050991 0.216203
vt 0.021209 0.126551
vt 0.037035 0.202735
vt 0.037907 0.217082
vt 0.022422 0.152317
vt 0.060983 0.199093
vt 0.051825 0.196294
vt 0.038205 0.192036
vt 0.022313 0.106954
vt 0.295371 0.472450
vt 0.307522 0.432769
vt 0.269955 0.664093
vt 0.275703 0.550577
vt 0.058865 0.165372
vt 0.068053 0.176115
vt 0.048380 0.057716
vt 0.074466 0.184713
vt 0.079020 0.191301
vt 0.082524 0.196201
vt 0.085116 0.200233
vt 0.935929 0.224102
vt 0.942368 0.220529
vt 0.931104 0.226505
vt 0.927354 0.228253
vt 0.765473 0.302127
vt 0.759529 0.275759
vt 0.787358 0.266992
vt 0.793510 0.289097
vt 0.813188 0.259521
vt 0.819037 0.277274
vt 0.860316 0.258391
vt 0.841016 0.267261
vt 0.836475 0.253183
vt 0.857280 0.247327
vt 0.893159 0.243571
vt 0.877886 0.250347
vt 0.875855 0.241699
vt 0.891724 0.236848
vt 0.913606 0.234724
vt 0.905257 0.238328
vt 0.904348 0.232946
vt 0.913248 0.230139
vt 0.922058 0.228707
vt 0.918641 0.228719
vt 0.920461 0.232000
vt 0.918107 0.232749
vt 0.922744 0.231653
vt 0.922028 0.231674
vt 0.924175 0.229716
vt 0.924885 0.230629
vt 0.925104 0.231161
vt 0.924983 0.233428
vt 0.921261 0.232471
vt 0.922598 0.231889
vt 0.922360 0.237167
vt 0.916656 0.241932
vt 0.912754 0.236760
vt 0.918405 0.233744
vt 0.890719 0.248809
vt 0.903348 0.241793
vt 0.907483 0.248675
vt 0.895491 0.257661
vt 0.857563 0.266870
vt 0.875591 0.257469
vt 0.881086 0.268662
vt 0.863754 0.281157
vt 0.842978 0.294778
vt 0.818764 0.310213
vt 0.811606 0.286788
vt 0.836130 0.276144
vt 0.791276 0.328384
vt 0.762636 0.346545
vt 0.756062 0.314708
vt 0.784467 0.300722
vt 0.734599 0.361755
vt 0.703691 0.375148
vt 0.693493 0.334318
vt 0.727372 0.325276
vt 0.666624 0.387005
vt 0.626244 0.398274
vt 0.605464 0.350930
vt 0.650077 0.343238
vt 0.585672 0.410370
vt 0.549439 0.421056
vt 0.530005 0.370976
vt 0.563876 0.359888
vt 0.495110 0.429045
vt 0.520281 0.427070
vt 0.495617 0.379580
vt 0.509799 0.377976
vt 0.469907 0.427936
vt 0.440704 0.423289
vt 0.460143 0.371934
vt 0.481304 0.377771
vt 0.362666 0.402454
vt 0.403963 0.414755
vt 0.385011 0.357300
vt 0.425044 0.365594
vt 0.285904 0.375880
vt 0.322415 0.389526
vt 0.298472 0.334317
vt 0.341336 0.345142
vt 0.228199 0.343388
vt 0.255460 0.360707
vt 0.237021 0.311530
vt 0.265160 0.323796
vt 0.174776 0.301100
vt 0.200731 0.322485
vt 0.184152 0.278121
vt 0.209794 0.295022
vt 0.133154 0.265704
vt 0.152208 0.282403
vt 0.140986 0.252093
vt 0.161027 0.264370
vt 0.110768 0.228948
vt 0.124458 0.239987
vt 0.117586 0.250483
vt 0.104861 0.237124
vt 0.091006 0.213229
vt 0.099406 0.219868
vt 0.094345 0.226106
vt 0.086377 0.217713
vt 0.079669 0.207685
vt 0.081578 0.211887
vt 0.083488 0.207425
vt 0.086026 0.209197
vt 0.080244 0.204932
vt 0.079933 0.205414
vt 0.082124 0.206271
vt 0.082144 0.206534
vt 0.084317 0.207092
vt 0.082889 0.206517
vt 0.081106 0.204153
vt 0.083331 0.203544
vt 0.090567 0.211045
vt 0.086515 0.208268
vt 0.086659 0.204157
vt 0.091681 0.206523
vt 0.109347 0.221941
vt 0.098155 0.216090
vt 0.099878 0.210843
vt 0.111569 0.216791
vt 0.142093 0.235654
vt 0.123163 0.228474
vt 0.126338 0.224081
vt 0.143695 0.232414
vt 0.183051 0.256034
vt 0.161739 0.244189
vt 0.163310 0.241084
vt 0.185391 0.250282
vt 0.232788 0.285467
vt 0.206364 0.269545
vt 0.209984 0.260516
vt 0.236659 0.271589
vt 0.264959 0.282535
vt 0.295376 0.292428
vt 0.289141 0.312271
vt 0.260564 0.298903
vt 0.361497 0.334207
vt 0.326650 0.324073
vt 0.329250 0.301551
vt 0.363980 0.308737
vt 0.394785 0.312109
vt 0.425070 0.313495
vt 0.418678 0.342735
vt 0.389667 0.339771
vt 0.496221 0.315011
vt 0.458999 0.315292
vt 0.495875 0.355233
vt 0.455817 0.341870
vt 0.533510 0.313346
vt 0.567724 0.310187
vt 0.572390 0.353386
vt 0.535795 0.354686
vt 0.629631 0.305369
vt 0.598068 0.308048
vt 0.629010 0.345271
vt 0.600670 0.348170
vt 0.702945 0.327515
vt 0.664934 0.338003
vt 0.664719 0.299914
vt 0.699005 0.292442
vt 0.730158 0.284211
vt 0.735828 0.315185
s 1
f 1/1/1 2/2/2 3/3/3 4/4/4
f 2/2/2 5/5/5 6/6/6 3/3/3
f 3/3/3 6/6/6 7/7/7 8/8/8
f 4/4/4 3/3/3 8/8/8 9/9/9
f 10/10/10 11/11/11 12/12/12 13/13/13
f 11/11/11 14/14/14 15/15/15 12/12/12
f 12/12/12 15/15/15 16/16/16 17/17/17
f 13/13/13 12/12/12 17/17/17 18/18/18
f 19/19/19 20/20/20 21/21/21 22/22/22
f 20/20/20 23/23/23 24/24/24 21/21/21
f 21/21/21 24/24/24 25/25/25 26/26/26
f 22/22/22 21/21/21 26/26/26 27/27/27
f 28/28/28 29/29/29 30/30/30 31/31/31
f 29/29/29 32/32/32 33/33/33 30/30/30
f 30/30/30 33/33/33 34/34/34 35/35/35
f 31/31/31 30/30/30 35/35/35 36/36/36
f 32/32/32 29/29/29 37/37/37 38/38/38
f 29/29/29 28/28/28 39/39/39 37/37/37
f 37/37/37 39/39/39 40/40/40 41/41/41
f 38/38/38 37/37/37 41/41/41 42/42/42
f 43/43/43 44/44/44 45/45/45 46/46/46
f 44/44/44 47/47/47 48/48/48 45/45/45
f 45/45/45 48/48/48 42/42/42 41/41/41
f 46/46/46 45/45/45 41/41/41 40/40/40
f 49/49/49 50/50/50 51/51/51 52/52/52
f 50/50/50 53/53/53 54/54/54 51/51/51
f 51/51/51 54/54/54 55/55/55 56/56/56
f 52/52/52 51/51/51 56/56/56 57/57/57
f 58/58/58 59/59/59 60/60/60 61/61/61
f 59/59/59 62/62/62 63/63/63 60/60/60
f 60/60/60 63/63/63 64/64/64 65/65/65
f 61/61/61 60/60/60 65/65/65 66/66/66
f 58/58/58 61/61/61 67/67/67 68/68/68
f 61/61/61 66/66/66 69/69/69 67/67/67
f 67/67/67 69/69/69 70/70/70 71/71/71
f 68/68/68 67/67/67 71/71/71 72/72/72
f 73/73/73 74/74/74 75/75/75 76/76/76
f 74/74/74 77/77/77 78/78/78 75/75/75
f 75/75/75 78/78/78 72/72/72 71/71/71
f 76/76/76 75/75/75 71/71/71 70/70/70
f 77/77/77 74/74/74 79/79/79 80/80/80
f 74/74/74 73/73/73 81/81/81 79/79/79
f 79/79/79 81/81/81 82/82/82 83/83/83
f 80/80/80 79/79/79 83/83/83 84/84/84
f 25/25/25 85/85/85 86/86/86 26/26/26
f 85/85/85 1/1/1 4/4/4 86/86/86
f 86/86/86 4/4/4 9/9/9 87/87/87
f 26/26/26 86/86/86 87/87/87 27/27/27
f 28/28/28 31/31/31 88/88/88 89/89/89
f 31/31/31 36/36/36 90/90/90 88/88/88
f 88/88/88 90/90/90 82/82/82 81/81/81
f 89/89/89 88/88/88 81/81/81 73/73/73
f 40/40/40 39/39/39 91/91/91 92/92/92
f 39/39/39 28/28/28 89/89/89 91/91/91
f 91/91/91 89/89/89 73/73/73 76/76/76
f 92/92/92 91/91/91 76/76/76 70/70/70
f 66/66/66 93/93/93 94/94/94 69/69/69
f 93/93/93 43/43/43 46/46/46 94/94/94
f 94/94/94 46/46/46 40/40/40 92/92/92
f 69/69/69 94/94/94 92/92/92 70/70/70
f 14/14/14 95/95/95 96/96/96 97/97/97
f 95/95/95 98/98/98 99/99/99 96/96/96
f 96/96/96 99/99/99 100/100/100 101/101/101
f 97/97/97 96/96/96 101/101/101 102/102/102
f 16/16/16 15/15/15 103/103/103 104/104/104
f 15/15/15 14/14/14 97/97/97 103/103/103
f 103/103/103 97/97/97 102/102/102 105/105/105
f 104/104/104 103/103/103 105/105/105 106/106/106
f 107/107/107 108/108/108 109/109/109 110/110/110
f 108/108/108 111/111/111 112/112/112 109/109/109
f 109/109/109 112/112/112 113/113/113 114/114/114
f 110/110/110 109/109/109 114/114/114 115/115/115
f 116/116/116 117/117/117 118/118/118 119/119/119
f 117/117/117 120/120/120 121/121/121 118/118/118
f 118/118/118 121/121/121 107/107/107 110/110/110
f 119/119/119 118/118/118 110/110/110 115/115/115
f 120/120/120 117/117/117 122/122/122 123/123/123
f 117/117/117 116/116/116 124/124/124 122/122/122
f 122/122/122 124/124/124 125/125/125 126/126/126
f 123/123/123 122/122/122 126/126/126 127/127/127
f 106/106/106 105/105/105 128/128/128 129/129/129
f 105/105/105 102/102/102 130/130/130 128/128/128
f 128/128/128 130/130/130 131/131/131 132/132/132
f 129/129/129 128/128/128 132/132/132 133/133/133
f 134/134/134 135/135/135 136/136/136 137/137/137
f 135/135/135 138/138/138 139/139/139 136/136/136
f 136/136/136 139/139/139 140/140/140 141/141/141
f 137/137/137 136/136/136 141/141/141 142/142/142
f 143/143/143 144/144/144 145/145/145 146/146/146
f 144/144/144 147/147/147 148/148/148 145/145/145
f 145/145/145 148/148/148 140/140/140 139/139/139
f 146/146/146 145/145/145 139/139/139 138/138/138
f 143/143/143 149/149/149 150/150/150 144/144/144
f 149/149/149 151/151/151 152/152/152 150/150/150
f 150/150/150 152/152/152 153/153/153 154/154/154
f 144/144/144 150/150/150 154/154/154 147/147/147
f 155/155/155 156/156/156 157/157/157 158/158/158
f 156/156/156 159/159/159 160/160/160 157/157/157
f 157/157/157 160/160/160 106/106/106 129/129/129
f 158/158/158 157/157/157 129/129/129 133/133/133
f 161/161/161 162/162/162 163/163/163 164/164/164
f 162/162/162 16/16/16 104/104/104 163/163/163
f 163/163/163 104/104/104 106/106/106 160/160/160
f 164/164/164 163/163/163 160/160/160 159/159/159
f 18/18/18 17/17/17 165/165/165 166/166/166
f 17/17/17 16/16/16 162/162/162 165/165/165
f 165/165/165 162/162/162 161/161/161 167/167/167
f 166/166/166 165/165/165 167/167/167 168/168/168
f 140/140/140 169/169/169 170/170/170 141/141/141
f 169/169/169 120/120/120 123/123/123 170/170/170
f 170/170/170 123/123/123 127/127/127 171/171/171
f 141/141/141 170/170/170 171/171/171 142/142/142
f 107/107/107 121/121/121 172/172/172 173/173/173
f 121/121/121 120/120/120 169/169/169 172/172/172
f 172/172/172 169/169/169 140/140/140 148/148/148
f 173/173/173 172/172/172 148/148/148 147/147/147
f 111/111/111 108/108/108 174/174/174 175/175/175
f 108/108/108 107/107/107 173/173/173 174/174/174
f 174/174/174 173/173/173 147/147/147 154/154/154
f 175/175/175 174/174/174 154/154/154 153/153/153
f 25/25/25 24/24/24 176/176/176 177/177/177
f 24/24/24 23/23/23 178/178/178 176/176/176
f 176/176/176 178/178/178 84/84/84 83/83/83
f 177/177/177 176/176/176 83/83/83 82/82/82
f 5/5/5 2/2/2 179/179/179 180/180/180
f 2/2/2 1/1/1 181/181/181 179/179/179
f 179/179/179 181/181/181 36/36/36 35/35/35
f 180/180/180 179/179/179 35/35/35 34/34/34
f 125/125/125 124/124/124 182/182/182 183/183/183
f 124/124/124 116/116/116 184/184/184 182/182/182
f 182/182/182 184/184/184 9/9/9 8/8/8
f 183/183/183 182/182/182 8/8/8 7/7/7
f 27/27/27 87/87/87 185/185/185 186/186/186
f 87/87/87 9/9/9 184/184/184 185/185/185
f 185/185/185 184/184/184 116/116/116 119/119/119
f 186/186/186 185/185/185 119/119/119 115/115/115
f 115/115/115 114/114/114 187/187/187 186/186/186
f 114/114/114 113/113/113 188/188/188 187/187/187
f 187/187/187 188/188/188 19/19/19 22/22/22
f 186/186/186 187/187/187 22/22/22 27/27/27
f 189/189/189 190/190/190 191/191/191 192/192/192
f 190/190/190 193/193/193 194/194/194 191/191/191
f 191/191/191 194/194/194 195/195/195 196/196/196
f 192/192/192 191/191/191 196/196/196 197/197/197
f 197/197/197 196/196/196 198/198/198 199/199/199
f 196/196/196 195/195/195 200/200/200 198/198/198
f 198/198/198 200/200/200 201/201/201 202/202/202
f 199/199/199 198/198/198 202/202/202 203/203/203
f 201/201/201 204/204/204 205/205/205 202/202/202
f 204/204/204 206/206/206 207/207/207 205/205/205
f 205/205/205 207/207/207 208/208/208 209/209/209
f 202/202/202 205/205/205 209/209/209 203/203/203
f 210/210/210 211/211/211 212/212/212 213/213/213
f 211/211/211 189/189/189 192/192/192 212/212/212
f 212/212/212 192/192/192 197/197/197 214/214/214
f 213/213/213 212/212/212 214/214/214 215/215/215
f 215/215/215 214/214/214 216/216/216 217/217/217
f 214/214/214 197/197/197 199/199/199 216/216/216
f 216/216/216 199/199/199 203/203/203 218/218/218
f 217/217/217 216/216/216 218/218/218 219/219/219
f 220/220/220 221/221/221 222/222/222 223/223/223
f 221/221/221 100/100/100 224/224/224 222/222/222
f 222/222/222 224/224/224 225/225/225 226/226/226
f 223/223/223 222/222/222 226/226/226 227/227/227
f 100/100/100 99/99/99 228/228/228 224/224/224
f 99/99/99 98/98/98 229/229/229 228/228/228
f 228/228/228 229/229/229 230/230/230 231/231/231
f 224/224/224 228/228/228 231/231/231 225/225/225
f 98/98/98 232/232/232 233/233/233 229/229/229
f 232/232/232 234/234/234 235/235/235 233/233/233
f 233/233/233 235/235/235 236/236/236 237/237/237
f 229/229/229 233/233/233 237/237/237 230/230/230
f 238/238/238 239/239/239 240/240/240 241/241/241
f 239/239/239 227/227/227 226/226/226 240/240/240
f 240/240/240 226/226/226 225/225/225 242/242/242
f 241/241/241 240/240/240 242/242/242 243/243/243
f 243/243/243 242/242/242 244/244/244 245/245/245
f 242/242/242 225/225/225 231/231/231 244/244/244
f 244/244/244 231/231/231 230/230/230 246/246/246
f 245/245/245 244/244/244 246/246/246 247/247/247
f 247/247/247 246/246/246 248/248/248 249/249/249
f 246/246/246 230/230/230 237/237/237 248/248/248
f 248/248/248 237/237/237 236/236/236 250/250/250
f 249/249/249 248/248/248 250/250/250 251/251/251
f 25/25/25 177/177/177 252/252/252 85/85/85
f 177/177/177 82/82/82 90/90/90 252/252/252
f 252/252/252 90/90/90 36/36/36 181/181/181
f 85/85/85 252/252/252 181/181/181 1/1/1
f 247/247/247 253/253/253 254/254/254 245/245/245
f 253/253/253 215/215/215 217/217/217 254/254/254
f 254/254/254 217/217/217 219/219/219 255/255/255
f 245/245/245 254/254/254 255/255/255 243/243/243
f 251/251/251 256/256/256 257/257/257 249/249/249
f 256/256/256 210/210/210 213/213/213 257/257/257
f 257/257/257 213/213/213 215/215/215 253/253/253
f 249/249/249 257/257/257 253/253/253 247/247/247
f 238/238/238 241/241/241 258/258/258 259/259/259
f 241/241/241 243/243/243 255/255/255 258/258/258
f 258/258/258 255/255/255 219/219/219 260/260/260
f 259/259/259 258/258/258 260/260/260 261/261/261
f 208/208/208 262/262/262 263/263/263 209/209/209
f 262/262/262 261/261/261 260/260/260 263/263/263
f 263/263/263 260/260/260 219/219/219 218/218/218
f 209/209/209 263/263/263 218/218/218 203/203/203
f 53/53/53 264/264/264 265/265/265 54/54/54
f 264/264/264 195/195/195 194/194/194 265/265/265
f 265/265/265 194/194/194 193/193/193 266/266/266
f 54/54/54 265/265/265 266/266/266 55/55/55
f 267/267/267 268/268/268 269/269/269 270/270/270
f 268/268/268 201/201/201 200/200/200 269/269/269
f 269/269/269 200/200/200 195/195/195 264/264/264
f 270/270/270 269/269/269 264/264/264 53/53/53
f 271/271/271 272/272/272 273/273/273 274/274/274
f 272/272/272 206/206/206 204/204/204 273/273/273
f 273/273/273 204/204/204 201/201/201 268/268/268
f 274/274/274 273/273/273 268/268/268 267/267/267
f 64/64/64 275/275/275 276/276/276 277/277/277
f 275/275/275 267/267/267 270/270/270 276/276/276
f 276/276/276 270/270/270 53/53/53 50/50/50
f 277/277/277 276/276/276 50/50/50 49/49/49
f 62/62/62 278/278/278 279/279/279 63/63/63
f 278/278/278 271/271/271 274/274/274 279/279/279
f 279/279/279 274/274/274 267/267/267 275/275/275
f 63/63/63 279/279/279 275/275/275 64/64/64
f 14/14/14 11/11/11 280/280/280 95/95/95
f 11/11/11 10/10/10 281/281/281 280/280/280
f 280/280/280 281/281/281 234/234/234 232/232/232
f 95/95/95 280/280/280 232/232/232 98/98/98
f 131/131/131 130/130/130 282/282/282 283/283/283
f 130/130/130 102/102/102 101/101/101 282/282/282
f 282/282/282 101/101/101 100/100/100 221/221/221
f 283/283/283 282/282/282 221/221/221 220/220/220
f 284/284/284 285/285/285 286/286/286 287/287/287
f 285/285/285 288/288/288 289/289/289 286/286/286
f 286/286/286 289/289/289 290/290/290 291/291/291
f 287/287/287 286/286/286 291/291/291 292/292/292
f 293/293/293 294/294/294 295/295/295 296/296/296
f 294/294/294 297/297/297 298/298/298 295/295/295
f 295/295/295 298/298/298 299/299/299 300/300/300
f 296/296/296 295/295/295 300/300/300 301/301/301
f 302/302/302 303/303/303 304/304/304 305/305/305
f 303/303/303 306/306/306 307/307/307 304/304/304
f 304/304/304 307/307/307 308/308/308 309/309/309
f 305/305/305 304/304/304 309/309/309 310/310/310
f 311/311/311 312/312/312 313/313/313 314/314/314
f 312/312/312 315/315/315 316/316/316 313/313/313
f 313/313/313 316/316/316 317/317/317 318/318/318
f 314/314/314 313/313/313 318/318/318 319/319/319
f 319/319/319 320/320/320 321/321/321 314/314/314
f 320/320/320 322/322/322 323/323/323 321/321/321
f 321/321/321 323/323/323 324/324/324 325/325/325
f 314/314/314 321/321/321 325/325/325 311/311/311
f 326/326/326 327/327/327 328/328/328 329/329/329
f 327/327/327 330/330/330 331/331/331 328/328/328
f 328/328/328 331/331/331 332/332/332 333/333/333
f 329/329/329 328/328/328 333/333/333 334/334/334
f 326/326/326 329/329/329 335/335/335 336/336/336
f 329/329/329 334/334/334 337/337/337 335/335/335
f 335/335/335 337/337/337 338/338/338 339/339/339
f 336/336/336 335/335/335 339/339/339 340/340/340
f 341/341/341 342/342/342 343/343/343 344/344/344
f 342/342/342 345/345/345 346/346/346 343/343/343
f 343/343/343 346/346/346 347/347/347 348/348/348
f 344/344/344 343/343/343 348/348/348 349/349/349
f 350/350/350 351/351/351 352/352/352 353/353/353
f 351/351/351 354/354/354 355/355/355 352/352/352
f 352/352/352 355/355/355 356/356/356 357/357/357
f 353/353/353 352/352/352 357/357/357 358/358/358
f 358/358/358 359/359/359 360/360/360 353/353/353
f 359/359/359 361/361/361 362/362/362 360/360/360
f 360/360/360 362/362/362 363/363/363 364/364/364
f 353/353/353 360/360/360 364/364/364 350/350/350
f 308/308/308 307/307/307 365/365/365 366/366/366
f 307/307/307 306/306/306 367/367/367 365/365/365
f 365/365/365 367/367/367 288/288/288 285/285/285
f 366/366/366 365/365/365 285/285/285 284/284/284
f 311/311/311 368/368/368 369/369/369 312/312/312
f 368/368/368 350/350/350 364/364/364 369/369/369
f 369/369/369 364/364/364 363/363/363 370/370/370
f 312/312/312 369/369/369 370/370/370 315/315/315
f 324/324/324 371/371/371 372/372/372 325/325/325
f 371/371/371 354/354/354 351/351/351 372/372/372
f 372/372/372 351/351/351 350/350/350 368/368/368
f 325/325/325 372/372/372 368/368/368 311/311/311
f 326/326/326 373/373/373 374/374/374 327/327/327
f 373/373/373 347/347/347 346/346/346 374/374/374
f 374/374/374 346/346/346 345/345/345 375/375/375
f 327/327/327 374/374/374 375/375/375 330/330/330
f 301/301/301 376/376/376 377/377/377 378/378/378
f 376/376/376 379/379/379 380/380/380 377/377/377
f 377/377/377 380/380/380 381/381/381 382/382/382
f 378/378/378 377/377/377 382/382/382 383/383/383
f 299/299/299 384/384/384 385/385/385 300/300/300
f 384/384/384 386/386/386 387/387/387 385/385/385
f 385/385/385 387/387/387 379/379/379 376/376/376
f 300/300/300 385/385/385 376/376/376 301/301/301
f 388/388/388 389/389/389 390/390/390 391/391/391
f 389/389/389 392/392/392 393/393/393 390/390/390
f 390/390/390 393/393/393 394/394/394 395/395/395
f 391/391/391 390/390/390 395/395/395 396/396/396
f 397/397/397 398/398/398 399/399/399 400/400/400
f 398/398/398 392/392/392 389/389/389 399/399/399
f 399/399/399 389/389/389 388/388/388 401/401/401
f 400/400/400 399/399/399 401/401/401 402/402/402
f 402/402/402 403/403/403 404/404/404 400/400/400
f 403/403/403 405/405/405 406/406/406 404/404/404
f 404/404/404 406/406/406 407/407/407 408/408/408
f 400/400/400 404/404/404 408/408/408 397/397/397
f 386/386/386 409/409/409 410/410/410 387/387/387
f 409/409/409 411/411/411 412/412/412 410/410/410
f 410/410/410 412/412/412 413/413/413 414/414/414
f 387/387/387 410/410/410 414/414/414 379/379/379
f 134/134/134 415/415/415 416/416/416 135/135/135
f 415/415/415 417/417/417 418/418/418 416/416/416
f 416/416/416 418/418/418 419/419/419 420/420/420
f 135/135/135 416/416/416 420/420/420 138/138/138
f 143/143/143 146/146/146 421/421/421 422/422/422
f 146/146/146 138/138/138 420/420/420 421/421/421
f 421/421/421 420/420/420 419/419/419 423/423/423
f 422/422/422 421/421/421 423/423/423 424/424/424
f 143/143/143 422/422/422 425/425/425 149/149/149
f 422/422/422 424/424/424 426/426/426 425/425/425
f 425/425/425 426/426/426 427/427/427 428/428/428
f 149/149/149 425/425/425 428/428/428 151/151/151
f 155/155/155 429/429/429 430/430/430 156/156/156
f 429/429/429 411/411/411 409/409/409 430/430/430
f 430/430/430 409/409/409 386/386/386 431/431/431
f 156/156/156 430/430/430 431/431/431 159/159/159
f 161/161/161 164/164/164 432/432/432 433/433/433
f 164/164/164 159/159/159 431/431/431 432/432/432
f 432/432/432 431/431/431 386/386/386 384/384/384
f 433/433/433 432/432/432 384/384/384 299/299/299
f 297/297/297 434/434/434 435/435/435 298/298/298
f 434/434/434 168/168/168 167/167/167 435/435/435
f 435/435/435 167/167/167 161/161/161 433/433/433
f 298/298/298 435/435/435 433/433/433 299/299/299
f 419/419/419 418/418/418 436/436/436 437/437/437
f 418/418/418 417/417/417 438/438/438 436/436/436
f 436/436/436 438/438/438 405/405/405 403/403/403
f 437/437/437 436/436/436 403/403/403 402/402/402
f 388/388/388 439/439/439 440/440/440 401/401/401
f 439/439/439 424/424/424 423/423/423 440/440/440
f 440/440/440 423/423/423 419/419/419 437/437/437
f 401/401/401 440/440/440 437/437/437 402/402/402
f 396/396/396 441/441/441 442/442/442 391/391/391
f 441/441/441 427/427/427 426/426/426 442/442/442
f 442/442/442 426/426/426 424/424/424 439/439/439
f 391/391/391 442/442/442 439/439/439 388/388/388
f 308/308/308 443/443/443 444/444/444 309/309/309
f 443/443/443 363/363/363 362/362/362 444/444/444
f 444/444/444 362/362/362 361/361/361 445/445/445
f 309/309/309 444/444/444 445/445/445 310/310/310
f 292/292/292 446/446/446 447/447/447 287/287/287
f 446/446/446 317/317/317 316/316/316 447/447/447
f 447/447/447 316/316/316 315/315/315 448/448/448
f 287/287/287 447/447/447 448/448/448 284/284/284
f 407/407/407 449/449/449 450/450/450 408/408/408
f 449/449/449 290/290/290 289/289/289 450/450/450
f 450/450/450 289/289/289 288/288/288 451/451/451
f 408/408/408 450/450/450 451/451/451 397/397/397
f 306/306/306 452/452/452 453/453/453 367/367/367
f 452/452/452 392/392/392 398/398/398 453/453/453
f 453/453/453 398/398/398 397/397/397 451/451/451
f 367/367/367 453/453/453 451/451/451 288/288/288
f 392/392/392 452/452/452 454/454/454 393/393/393
f 452/452/452 306/306/306 303/303/303 454/454/454
f 454/454/454 303/303/303 302/302/302 455/455/455
f 393/393/393 454/454/454 455/455/455 394/394/394
f 456/456/456 457/457/457 458/458/458 459/459/459
f 457/457/457 460/460/460 461/461/461 458/458/458
f 458/458/458 461/461/461 462/462/462 463/463/463
f 459/459/459 458/458/458 463/463/463 464/464/464
f 460/460/460 465/465/465 466/466/466 461/461/461
f 465/465/465 467/467/467 468/468/468 466/466/466
f 466/466/466 468/468/468 469/469/469 470/470/470
f 461/461/461 466/466/466 470/470/470 462/462/462
f 469/469/469 468/468/468 471/471/471 472/472/472
f 468/468/468 467/467/467 473/473/473 471/471/471
f 471/471/471 473/473/473 474/474/474 475/475/475
f 472/472/472 471/471/471 475/475/475 476/476/476
f 477/477/477 478/478/478 479/479/479 480/480/480
f 478/478/478 481/481/481 482/482/482 479/479/479
f 479/479/479 482/482/482 460/460/460 457/457/457
f 480/480/480 479/479/479 457/457/457 456/456/456
f 481/481/481 483/483/483 484/484/484 482/482/482
f 483/483/483 485/485/485 486/486/486 484/484/484
f 484/484/484 486/486/486 467/467/467 465/465/465
f 482/482/482 484/484/484 465/465/465 460/460/460
f 487/487/487 488/488/488 489/489/489 490/490/490
f 488/488/488 491/491/491 492/492/492 489/489/489
f 489/489/489 492/492/492 493/493/493 494/494/494
f 490/490/490 489/489/489 494/494/494 381/381/381
f 381/381/381 494/494/494 495/495/495 382/382/382
f 494/494/494 493/493/493 496/496/496 495/495/495
f 495/495/495 496/496/496 497/497/497 498/498/498
f 382/382/382 495/495/495 498/498/498 383/383/383
f 383/383/383 498/498/498 499/499/499 500/500/500
f 498/498/498 497/497/497 501/501/501 499/499/499
f 499/499/499 501/501/501 502/502/502 503/503/503
f 500/500/500 499/499/499 503/503/503 504/504/504
f 505/505/505 506/506/506 507/507/507 508/508/508
f 506/506/506 509/509/509 510/510/510 507/507/507
f 507/507/507 510/510/510 493/493/493 492/492/492
f 508/508/508 507/507/507 492/492/492 491/491/491
f 509/509/509 511/511/511 512/512/512 510/510/510
f 511/511/511 513/513/513 514/514/514 512/512/512
f 512/512/512 514/514/514 497/497/497 496/496/496
f 510/510/510 512/512/512 496/496/496 493/493/493
f 513/513/513 515/515/515 516/516/516 514/514/514
f 515/515/515 517/517/517 518/518/518 516/516/516
f 516/516/516 518/518/518 502/502/502 501/501/501
f 514/514/514 516/516/516 501/501/501 497/497/497
f 308/308/308 366/366/366 519/519/519 443/443/443
f 366/366/366 284/284/284 448/448/448 519/519/519
f 519/519/519 448/448/448 315/315/315 370/370/370
f 443/443/443 519/519/519 370/370/370 363/363/363
f 513/513/513 511/511/511 520/520/520 521/521/521
f 511/511/511 509/509/509 522/522/522 520/520/520
f 520/520/520 522/522/522 485/485/485 483/483/483
f 521/521/521 520/520/520 483/483/483 481/481/481
f 517/517/517 515/515/515 523/523/523 524/524/524
f 515/515/515 513/513/513 521/521/521 523/523/523
f 523/523/523 521/521/521 481/481/481 478/478/478
f 524/524/524 523/523/523 478/478/478 477/477/477
f 505/505/505 525/525/525 526/526/526 506/506/506
f 525/525/525 527/527/527 528/528/528 526/526/526
f 526/526/526 528/528/528 485/485/485 522/522/522
f 506/506/506 526/526/526 522/522/522 509/509/509
f 474/474/474 473/473/473 529/529/529 530/530/530
f 473/473/473 467/467/467 486/486/486 529/529/529
f 529/529/529 486/486/486 485/485/485 528/528/528
f 530/530/530 529/529/529 528/528/528 527/527/527
f 340/340/340 339/339/339 531/531/531 532/532/532
f 339/339/339 338/338/338 533/533/533 531/531/531
f 531/531/531 533/533/533 464/464/464 463/463/463
f 532/532/532 531/531/531 463/463/463 462/462/462
f 534/534/534 535/535/535 536/536/536 537/537/537
f 535/535/535 340/340/340 532/532/532 536/536/536
f 536/536/536 532/532/532 462/462/462 470/470/470
f 537/537/537 536/536/536 470/470/470 469/469/469
f 538/538/538 539/539/539 540/540/540 541/541/541
f 539/539/539 534/534/534 537/537/537 540/540/540
f 540/540/540 537/537/537 469/469/469 472/472/472
f 541/541/541 540/540/540 472/472/472 476/476/476
f 347/347/347 373/373/373 542/542/542 543/543/543
f 373/373/373 326/326/326 336/336/336 542/542/542
f 542/542/542 336/336/336 340/340/340 535/535/535
f 543/543/543 542/542/542 535/535/535 534/534/534
f 349/349/349 348/348/348 544/544/544 545/545/545
f 348/348/348 347/347/347 543/543/543 544/544/544
f 544/544/544 543/543/543 534/534/534 539/539/539
f 545/545/545 544/544/544 539/539/539 538/538/538
f 301/301/301 378/378/378 546/546/546 296/296/296
f 378/378/378 383/383/383 500/500/500 546/546/546
f 546/546/546 500/500/500 504/504/504 547/547/547
f 296/296/296 546/546/546 547/547/547 293/293/293
f 413/413/413 548/548/548 549/549/549 414/414/414
f 548/548/548 487/487/487 490/490/490 549/549/549
f 549/549/549 490/490/490 381/381/381 380/380/380
f 414/414/414 549/549/549 380/380/380 379/379/379
f 345/345/345 342/342/342 550/550/550 551/551/551
f 342/342/342 341/341/341 552/552/552 550/550/550
f 550/550/550 552/552/552 356/356/356 355/355/355
f 551/551/551 550/550/550 355/355/355 354/354/354
f 330/330/330 375/375/375 553/553/553 554/554/554
f 375/375/375 345/345/345 551/551/551 553/553/553
f 553/553/553 551/551/551 354/354/354 371/371/371
f 554/554/554 553/553/553 371/371/371 324/324/324
f 332/332/332 331/331/331 555/555/555 556/556/556
f 331/331/331 330/330/330 554/554/554 555/555/555
f 555/555/555 554/554/554 324/324/324 323/323/323
f 556/556/556 555/555/555 323/323/323 322/322/322
f 49/49/49 557/557/557 558/558/558 277/277/277
f 557/557/557 43/43/43 93/93/93 558/558/558
f 558/558/558 93/93/93 66/66/66 65/65/65
f 277/277/277 558/558/558 65/65/65 64/64/64
f 49/49/49 52/52/52 559/559/559 557/557/557
f 52/52/52 57/57/57 560/560/560 559/559/559
f 559/559/559 560/560/560 47/47/47 44/44/44
f 557/557/557 559/559/559 44/44/44 43/43/43
f 561/561/561 562/562/562 563/563/563 564/564/564
f 562/562/562 7/7/7 6/6/6 563/563/563
f 563/563/563 6/6/6 5/5/5 565/565/565
f 564/564/564 563/563/563 565/565/565 566/566/566
f 567/567/567 568/568/568 569/569/569 570/570/570
f 568/568/568 566/566/566 565/565/565 569/569/569
f 569/569/569 565/565/565 5/5/5 180/180/180
f 570/570/570 569/569/569 180/180/180 34/34/34
f 571/571/571 572/572/572 573/573/573 574/574/574
f 572/572/572 567/567/567 570/570/570 573/573/573
f 573/573/573 570/570/570 34/34/34 33/33/33
f 574/574/574 573/573/573 33/33/33 32/32/32
f 575/575/575 576/576/576 577/577/577 578/578/578
f 576/576/576 571/571/571 574/574/574 577/577/577
f 577/577/577 574/574/574 32/32/32 38/38/38
f 578/578/578 577/577/577 38/38/38 42/42/42
f 47/47/47 579/579/579 580/580/580 48/48/48
f 579/579/579 581/581/581 582/582/582 580/580/580
f 580/580/580 582/582/582 575/575/575 578/578/578
f 48/48/48 580/580/580 578/578/578 42/42/42
f 583/583/583 584/584/584 585/585/585 586/586/586
f 584/584/584 581/581/581 579/579/579 585/585/585
f 585/585/585 579/579/579 47/47/47 560/560/560
f 586/586/586 585/585/585 560/560/560 57/57/57
f 57/57/57 56/56/56 587/587/587 586/586/586
f 56/56/56 55/55/55 588/588/588 587/587/587
f 587/587/587 588/588/588 589/589/589 590/590/590
f 586/586/586 587/587/587 590/590/590 583/583/583
f 55/55/55 266/266/266 591/591/591 588/588/588
f 266/266/266 193/193/193 592/592/592 591/591/591
f 591/591/591 592/592/592 593/593/593 594/594/594
f 588/588/588 591/591/591 594/594/594 589/589/589
f 595/595/595 596/596/596 597/597/597 598/598/598
f 596/596/596 593/593/593 592/592/592 597/597/597
f 597/597/597 592/592/592 193/193/193 190/190/190
f 598/598/598 597/597/597 190/190/190 189/189/189
f 599/599/599 600/600/600 601/601/601 602/602/602
f 600/600/600 595/595/595 598/598/598 601/601/601
f 601/601/601 598/598/598 189/189/189 211/211/211
f 602/602/602 601/601/601 211/211/211 210/210/210
f 210/210/210 256/256/256 603/603/603 602/602/602
f 256/256/256 251/251/251 604/604/604 603/603/603
f 603/603/603 604/604/604 605/605/605 606/606/606
f 602/602/602 603/603/603 606/606/606 599/599/599
f 251/251/251 250/250/250 607/607/607 604/604/604
f 250/250/250 236/236/236 608/608/608 607/607/607
f 607/607/607 608/608/608 609/609/609 610/610/610
f 604/604/604 607/607/607 610/610/610 605/605/605
f 236/236/236 235/235/235 611/611/611 608/608/608
f 235/235/235 234/234/234 612/612/612 611/611/611
f 611/611/611 612/612/612 613/613/613 614/614/614
f 608/608/608 611/611/611 614/614/614 609/609/609
f 234/234/234 281/281/281 615/615/615 612/612/612
f 281/281/281 10/10/10 616/616/616 615/615/615
f 615/615/615 616/616/616 617/617/617 618/618/618
f 612/612/612 615/615/615 618/618/618 613/613/613
f 10/10/10 13/13/13 619/619/619 616/616/616
f 13/13/13 18/18/18 620/620/620 619/619/619
f 619/619/619 620/620/620 621/621/621 622/622/622
f 616/616/616 619/619/619 622/622/622 617/617/617
f 168/168/168 623/623/623 624/624/624 166/166/166
f 623/623/623 625/625/625 626/626/626 624/624/624
f 624/624/624 626/626/626 621/621/621 620/620/620
f 166/166/166 624/624/624 620/620/620 18/18/18
f 168/168/168 434/434/434 627/627/627 623/623/623
f 434/434/434 297/297/297 628/628/628 627/627/627
f 627/627/627 628/628/628 629/629/629 630/630/630
f 623/623/623 627/627/627 630/630/630 625/625/625
f 293/293/293 631/631/631 632/632/632 294/294/294
f 631/631/631 633/633/633 634/634/634 632/632/632
f 632/632/632 634/634/634 629/629/629 628/628/628
f 294/294/294 632/632/632 628/628/628 297/297/297
f 504/504/504 635/635/635 636/636/636 547/547/547
f 635/635/635 637/637/637 638/638/638 636/636/636
f 636/636/636 638/638/638 633/633/633 631/631/631
f 547/547/547 636/636/636 631/631/631 293/293/293
f 502/502/502 639/639/639 640/640/640 503/503/503
f 639/639/639 641/641/641 642/642/642 640/640/640
f 640/640/640 642/642/642 637/637/637 635/635/635
f 503/503/503 640/640/640 635/635/635 504/504/504
f 517/517/517 643/643/643 644/644/644 518/518/518
f 643/643/643 645/645/645 646/646/646 644/644/644
f 644/644/644 646/646/646 641/641/641 639/639/639
f 518/518/518 644/644/644 639/639/639 502/502/502
f 477/477/477 647/647/647 648/648/648 524/524/524
f 647/647/647 649/649/649 650/650/650 648/648/648
f 648/648/648 650/650/650 645/645/645 643/643/643
f 524/524/524 648/648/648 643/643/643 517/517/517
f 651/651/651 652/652/652 653/653/653 654/654/654
f 652/652/652 649/649/649 647/647/647 653/653/653
f 653/653/653 647/647/647 477/477/477 480/480/480
f 654/654/654 653/653/653 480/480/480 456/456/456
f 655/655/655 656/656/656 657/657/657 658/658/658
f 656/656/656 651/651/651 654/654/654 657/657/657
f 657/657/657 654/654/654 456/456/456 459/459/459
f 658/658/658 657/657/657 459/459/459 464/464/464
f 338/338/338 659/659/659 660/660/660 533/533/533
f 659/659/659 661/661/661 662/662/662 660/660/660
f 660/660/660 662/662/662 655/655/655 658/658/658
f 533/533/533 660/660/660 658/658/658 464/464/464
f 334/334/334 663/663/663 664/664/664 337/337/337
f 663/663/663 665/665/665 666/666/666 664/664/664
f 664/664/664 666/666/666 661/661/661 659/659/659
f 337/337/337 664/664/664 659/659/659 338/338/338
f 667/667/667 668/668/668 669/669/669 670/670/670
f 668/668/668 665/665/665 663/663/663 669/669/669
f 669/669/669 663/663/663 334/334/334 333/333/333
f 670/670/670 669/669/669 333/333/333 332/332/332
f 671/671/671 672/672/672 673/673/673 674/674/674
f 672/672/672 667/667/667 670/670/670 673/673/673
f 673/673/673 670/670/670 332/332/332 556/556/556
f 674/674/674 673/673/673 556/556/556 322/322/322
f 675/675/675 676/676/676 677/677/677 678/678/678
f 676/676/676 671/671/671 674/674/674 677/677/677
f 677/677/677 674/674/674 322/322/322 320/320/320
f 678/678/678 677/677/677 320/320/320 319/319/319
f 679/679/679 680/680/680 681/681/681 682/682/682
f 680/680/680 675/675/675 678/678/678 681/681/681
f 681/681/681 678/678/678 319/319/319 318/318/318
f 682/682/682 681/681/681 318/318/318 317/317/317
f 683/683/683 684/684/684 685/685/685 686/686/686
f 684/684/684 679/679/679 682/682/682 685/685/685
f 685/685/685 682/682/682 317/317/317 446/446/446
f 686/686/686 685/685/685 446/446/446 292/292/292
f 687/687/687 688/688/688 689/689/689 690/690/690
f 688/688/688 683/683/683 686/686/686 689/689/689
f 689/689/689 686/686/686 292/292/292 291/291/291
f 690/690/690 689/689/689 291/291/291 290/290/290
f 290/290/290 449/449/449 691/691/691 690/690/690
f 449/449/449 407/407/407 692/692/692 691/691/691
f 691/691/691 692/692/692 693/693/693 694/694/694
f 690/690/690 691/691/691 694/694/694 687/687/687
f 695/695/695 696/696/696 697/697/697 698/698/698
f 696/696/696 693/693/693 692/692/692 697/697/697
f 697/697/697 692/692/692 407/407/407 406/406/406
f 698/698/698 697/697/697 406/406/406 405/405/405
f 405/405/405 438/438/438 699/699/699 698/698/698
f 438/438/438 417/417/417 700/700/700 699/699/699
f 699/699/699 700/700/700 701/701/701 702/702/702
f 698/698/698 699/699/699 702/702/702 695/695/695
f 134/134/134 703/703/703 704/704/704 415/415/415
f 703/703/703 705/705/705 706/706/706 704/704/704
f 704/704/704 706/706/706 701/701/701 700/700/700
f 415/415/415 704/704/704 700/700/700 417/417/417
f 134/134/134 137/137/137 707/707/707 703/703/703
f 137/137/137 142/142/142 708/708/708 707/707/707
f 707/707/707 708/708/708 709/709/709 710/710/710
f 703/703/703 707/707/707 710/710/710 705/705/705
f 127/127/127 711/711/711 712/712/712 171/171/171
f 711/711/711 713/713/713 714/714/714 712/712/712
f 712/712/712 714/714/714 709/709/709 708/708/708
f 171/171/171 712/712/712 708/708/708 142/142/142
f 715/715/715 716/716/716 717/717/717 718/718/718
f 716/716/716 713/713/713 711/711/711 717/717/717
f 717/717/717 711/711/711 127/127/127 126/126/126
f 718/718/718 717/717/717 126/126/126 125/125/125
f 7/7/7 562/562/562 719/719/719 183/183/183
f 562/562/562 561/561/561 720/720/720 719/719/719
f 719/719/719 720/720/720 715/715/715 718/718/718
f 183/183/183 719/719/719 718/718/718 125/125/125
